<?xml version="1.0" encoding="UTF-8" standalone="no"?>
<svg
   xmlns:dc="http://purl.org/dc/elements/1.1/"
   xmlns:cc="http://creativecommons.org/ns#"
   xmlns:rdf="http://www.w3.org/1999/02/22-rdf-syntax-ns#"
   xmlns:svg="http://www.w3.org/2000/svg"
   xmlns="http://www.w3.org/2000/svg"
   xmlns:sodipodi="http://sodipodi.sourceforge.net/DTD/sodipodi-0.dtd"
   xmlns:inkscape="http://www.inkscape.org/namespaces/inkscape"
   id="Nederlands_verkeersbord_J6"
   width="216"
   height="185"
   viewBox="0 0 216 185"
   version="1.1"
   sodipodi:docname="Nederlands_verkeersbord_J6_Steile_helling.svg"
   inkscape:version="0.92.3 (2405546, 2018-03-11)">
  <metadata
     id="metadata27">
    <rdf:RDF>
      <cc:Work
         rdf:about="">
        <dc:format>image/svg+xml</dc:format>
        <dc:type
           rdf:resource="http://purl.org/dc/dcmitype/StillImage" />
        <dc:title></dc:title>
      </cc:Work>
    </rdf:RDF>
  </metadata>
  <defs
     id="defs25" />
  <sodipodi:namedview
     pagecolor="#ffffff"
     bordercolor="#666666"
     borderopacity="1"
     objecttolerance="10"
     gridtolerance="10"
     guidetolerance="10"
     inkscape:pageopacity="0"
     inkscape:pageshadow="2"
     inkscape:window-width="640"
     inkscape:window-height="480"
     id="namedview23"
     showgrid="false"
     inkscape:zoom="0.78666667"
     inkscape:cx="175"
     inkscape:cy="150"
     inkscape:window-x="0"
     inkscape:window-y="0"
     inkscape:window-maximized="0"
     inkscape:current-layer="Nederlands_verkeersbord_J6" />
  <path
     id="rode_driehoek"
     d="m -55.101695,225.67797 c 0,0 16.820331,0 0,0 -14.916539,0 -7.219509,-16.14695 -7.219509,-16.14695 L 98.805095,-66.247534 c 0,0 -3.50615,6.11627 0,0 6.253325,-10.92774 14.404105,-10.44659 20.211945,-0.47299 l 161.0933,276.251544 c 0,0 7.70529,16.14695 -7.21203,16.14695 -16.82781,0 0,0 0,0 H -55.101695"
     inkscape:connector-curvature="0"
     style="fill:#c1121c" />
  <path
     id="witte_driehoek"
     d="M 109.38131,-0.6240339 217.10683,185.2535 H 0.19556608 L 109.38131,-0.6240339"
     inkscape:connector-curvature="0"
     style="fill:#f7fbf5" />
  <path
     id="zwart_symbool"
     d="m 160.6535,96.691936 51.00475,85.589774 H 6.2827291 L 160.6535,96.691936"
     inkscape:connector-curvature="0"
     style="fill:#2a2d2f" />
  <g
     id="tekst_10_procent"
     transform="translate(-66.101695,-74.322034)">
    <path
       d="m 157.00595,204.95894 -7.48136,4.25024 -15.70262,-26.79354 -4.17641,3.36443 -2.861,-4.66469 c 0,0 2.861,-4.38026 4.04486,-9.75197 l 5.01498,-2.88495 21.16155,36.48048"
       id="path5"
       inkscape:connector-curvature="0"
       style="fill:#2a2d2f" />
    <path
       d="m 152.41026,158.12512 c 7.99929,-5.04665 19.62417,-0.69077 25.95454,9.75196 6.32216,10.44274 4.94098,23.01465 -3.08298,28.06129 -7.99929,5.07915 -19.62416,0.69889 -25.95454,-9.74384 -6.28927,-10.41835 -4.94098,-22.99026 3.08298,-28.06941"
       id="path7"
       inkscape:connector-curvature="0"
       style="fill:#2a2d2f" />
    <path
       d="m 157.84451,165.7154 c 4.16818,-1.96665 10.36702,1.43029 13.93505,7.59028 3.53515,6.18437 3.01721,12.79133 -1.12631,14.76611 -4.14351,1.96664 -10.37524,-1.43029 -13.90217,-7.59029 -3.53514,-6.1925 -3.05009,-12.79945 1.09343,-14.7661"
       id="path9"
       inkscape:connector-curvature="0"
       style="fill:#f7fbf5" />
    <path
       d="m 198.91797,132.25802 4.62035,-1.74723 -2.0882,48.75984 -4.46415,2.41362 1.932,-49.42623"
       id="path11"
       inkscape:connector-curvature="0"
       style="fill:#2a2d2f" />
    <path
       d="m 182.37678,141.61991 c 3.69135,-2.31609 9.05984,-0.31694 11.97839,4.51029 2.91854,4.82722 2.2773,10.60526 -1.41407,12.95386 -3.69135,2.31609 -9.05161,0.31694 -11.97838,-4.51029 -2.91855,-4.82722 -2.27729,-10.60526 1.41406,-12.95386"
       id="path13"
       inkscape:connector-curvature="0"
       style="fill:#2a2d2f" />
    <path
       d="m 184.91715,145.11437 c 1.8909,-0.91831 4.78479,0.66638 6.42081,3.52696 1.60314,2.81994 1.38118,5.86743 -0.51793,6.78574 -1.92378,0.92644 -4.81767,-0.66638 -6.42081,-3.48633 -1.63604,-2.86057 -1.41407,-5.90806 0.51793,-6.82637"
       id="path15"
       inkscape:connector-curvature="0"
       style="fill:#f7fbf5" />
    <path
       d="m 207.87915,153.14349 c 3.69136,-2.3161 9.05162,-0.31694 11.97839,4.51028 2.88566,4.82723 2.2773,10.60527 -1.44693,12.95387 -3.69136,2.31609 -9.05985,0.31693 -11.94551,-4.51029 -2.92678,-4.82722 -2.28552,-10.60526 1.41405,-12.95386"
       id="path17"
       inkscape:connector-curvature="0"
       style="fill:#2a2d2f" />
    <path
       d="m 210.37842,156.63794 c 1.932,-0.91831 4.78478,0.66639 6.42081,3.51884 1.64425,2.82807 1.41407,5.87556 -0.50972,6.79387 -1.92377,0.92643 -4.78477,-0.66639 -6.4208,-3.48633 -1.64426,-2.86058 -1.41407,-5.90807 0.50971,-6.82638"
       id="path19"
       inkscape:connector-curvature="0"
       style="fill:#f7fbf5" />
  </g>
</svg>
