<?xml version="1.0" encoding="UTF-8" standalone="no"?>
<svg
   xmlns:dc="http://purl.org/dc/elements/1.1/"
   xmlns:cc="http://creativecommons.org/ns#"
   xmlns:rdf="http://www.w3.org/1999/02/22-rdf-syntax-ns#"
   xmlns:svg="http://www.w3.org/2000/svg"
   xmlns="http://www.w3.org/2000/svg"
   xmlns:sodipodi="http://sodipodi.sourceforge.net/DTD/sodipodi-0.dtd"
   xmlns:inkscape="http://www.inkscape.org/namespaces/inkscape"
   id="Nederlands_verkeersbord_J21"
   width="216"
   height="185"
   viewBox="0 0 216 185"
   version="1.1"
   sodipodi:docname="Nederlands_verkeersbord_J21.svg"
   inkscape:version="0.92.3 (2405546, 2018-03-11)">
  <metadata
     id="metadata18">
    <rdf:RDF>
      <cc:Work
         rdf:about="">
        <dc:format>image/svg+xml</dc:format>
        <dc:type
           rdf:resource="http://purl.org/dc/dcmitype/StillImage" />
        <dc:title></dc:title>
      </cc:Work>
    </rdf:RDF>
  </metadata>
  <defs
     id="defs16" />
  <sodipodi:namedview
     pagecolor="#ffffff"
     bordercolor="#666666"
     borderopacity="1"
     objecttolerance="10"
     gridtolerance="10"
     guidetolerance="10"
     inkscape:pageopacity="0"
     inkscape:pageshadow="2"
     inkscape:window-width="640"
     inkscape:window-height="480"
     id="namedview14"
     showgrid="false"
     inkscape:zoom="0.78666667"
     inkscape:cx="175"
     inkscape:cy="150"
     inkscape:window-x="0"
     inkscape:window-y="0"
     inkscape:window-maximized="0"
     inkscape:current-layer="Nederlands_verkeersbord_J21" />
  <path
     id="rode_driehoek"
     d="m -56.372881,225.67797 c 0,0 16.820331,0 0,0 -14.916539,0 -7.219509,-16.14695 -7.219509,-16.14695 L 97.533909,-66.247538 c 0,0 -3.50615,6.116271 0,0 6.253321,-10.927736 14.404101,-10.446589 20.211941,-0.472991 l 161.0933,276.251549 c 0,0 7.70529,16.14695 -7.21203,16.14695 -16.82781,0 0,0 0,0 H -56.372881"
     inkscape:connector-curvature="0"
     style="fill:#c1121c" />
  <path
     id="witte_driehoek"
     d="M 108.11012,-0.62403 215.83564,185.2535 H -1.0756204 L 108.11012,-0.62403"
     inkscape:connector-curvature="0"
     style="fill:#f7fbf5" />
  <g
     id="zwart_symbool"
     transform="translate(-67.372881,-74.322034)">
    <path
       d="m 137.29118,178.05218 c 4.95927,0 8.99949,-3.99788 8.99949,-8.90173 0,-4.90384 -4.04022,-8.89341 -8.99949,-8.89341 -4.99289,0 -9.03227,3.98957 -9.03227,8.89341 0,4.90385 4.03938,8.90173 9.03227,8.90173"
       id="path4"
       inkscape:connector-curvature="0"
       style="fill:#2a2d2f" />
    <path
       d="m 140.08277,179.83086 c -2.26605,0.16623 -4.23698,1.33817 -5.48478,3.02542 l -19.01807,24.22001 4.07302,3.11685 13.23647,-13.5396 c 1.47819,7.01499 3.71145,11.88559 3.71145,11.88559 l -7.09415,47.07692 5.71518,-0.32416 11.33112,-32.11603 5.28803,10.78015 25.02837,8.47783 0.0984,-8.27835 -17.40787,-6.17552 -6.73342,-21.26108 -1.54378,-13.40661 3.44912,0.0914 8.04681,8.73549 3.90905,-4.57969 -9.62421,-9.89912 -11.26555,-6.00929 c -2.82437,-2.20257 -5.71517,-1.82024 -5.71517,-1.82024"
       id="path6"
       inkscape:connector-curvature="0"
       style="fill:#2a2d2f" />
    <path
       d="m 189.31801,152.11167 c 5.25523,-1.17194 8.50675,-6.33344 7.32453,-11.49495 -1.21585,-5.19475 -6.40466,-8.41134 -11.65989,-7.2394 -5.22245,1.16362 -8.4748,6.32512 -7.29174,11.48663 1.18221,5.19475 6.40466,8.41134 11.6271,7.24772"
       id="path8"
       inkscape:connector-curvature="0"
       style="fill:#2a2d2f" />
    <path
       d="m 191.09134,154.2145 c -2.92276,0.65662 -5.22245,2.53504 -6.47025,5.00359 l -19.9699,32.20745 4.23699,2.75946 17.0463,-19.96447 c 2.49645,8.99315 6.56946,18.0528 6.56946,18.0528 l -2.98918,64.05751 6.30628,-1.42959 9.42663,-49.83637 11.6599,17.75358 28.87099,15.78374 4.1714,-5.42748 -25.68506,-17.66215 -13.23647,-29.21528 -3.94101,-16.3988 5.51758,2.33556 7.09499,15.684 4.7953,-0.78129 -6.14233,-20.09746 -19.14839,-12.36766 c -4.17139,-2.33556 -8.11323,-0.45714 -8.11323,-0.45714"
       id="path10"
       inkscape:connector-curvature="0"
       style="fill:#2a2d2f" />
  </g>
</svg>
