<?xml version="1.0" encoding="UTF-8" standalone="no"?>
<svg
   xmlns:dc="http://purl.org/dc/elements/1.1/"
   xmlns:cc="http://creativecommons.org/ns#"
   xmlns:rdf="http://www.w3.org/1999/02/22-rdf-syntax-ns#"
   xmlns:svg="http://www.w3.org/2000/svg"
   xmlns="http://www.w3.org/2000/svg"
   xmlns:sodipodi="http://sodipodi.sourceforge.net/DTD/sodipodi-0.dtd"
   xmlns:inkscape="http://www.inkscape.org/namespaces/inkscape"
   id="Nederlands_verkeersbord_J33"
   width="216"
   height="185"
   viewBox="0 0 216 185"
   version="1.1"
   sodipodi:docname="Nederlands_verkeersbord_J33.svg"
   inkscape:version="0.92.3 (2405546, 2018-03-11)">
  <metadata
     id="metadata42">
    <rdf:RDF>
      <cc:Work
         rdf:about="">
        <dc:format>image/svg+xml</dc:format>
        <dc:type
           rdf:resource="http://purl.org/dc/dcmitype/StillImage" />
        <dc:title></dc:title>
      </cc:Work>
    </rdf:RDF>
  </metadata>
  <defs
     id="defs40" />
  <sodipodi:namedview
     pagecolor="#ffffff"
     bordercolor="#666666"
     borderopacity="1"
     objecttolerance="10"
     gridtolerance="10"
     guidetolerance="10"
     inkscape:pageopacity="0"
     inkscape:pageshadow="2"
     inkscape:window-width="640"
     inkscape:window-height="480"
     id="namedview38"
     showgrid="false"
     inkscape:zoom="0.78666667"
     inkscape:cx="23.618644"
     inkscape:cy="98.398805"
     inkscape:window-x="0"
     inkscape:window-y="0"
     inkscape:window-maximized="0"
     inkscape:current-layer="Nederlands_verkeersbord_J33" />
  <path
     id="rode_driehoek"
     d="m -55.101695,225.67797 c 0,0 16.820331,0 0,0 -14.916539,0 -7.219509,-16.14695 -7.219509,-16.14695 L 98.805095,-66.247534 c 0,0 -3.50615,6.11627 0,0 6.253325,-10.92774 14.404105,-10.44659 20.211945,-0.47299 l 161.0933,276.251544 c 0,0 7.70529,16.14695 -7.21203,16.14695 -16.82781,0 0,0 0,0 H -55.101695"
     inkscape:connector-curvature="0"
     style="fill:#c1121c" />
  <path
     id="witte_driehoek"
     d="M 109.38131,-0.6240339 217.10683,185.2535 H 0.19556608 L 109.38131,-0.6240339"
     inkscape:connector-curvature="0"
     style="fill:#f7fbf5" />
  <g
     id="zwart_symbool"
     transform="translate(-66.101695,-74.322034)">
    <path
       d="m 159.36562,183.86782 15.44696,0.0325 -0.0321,7.11146 c 0,1.3654 0.9956,1.33289 0.9956,1.33289 h 4.68859 c 0,0 0.9956,0.065 0.9956,-1.33289 l 0.0321,-7.11146 h 0.44971 l 3.1471,-3.52728 v -11.29706 l -3.11504,-2.34882 -4.52829,-11.40272 c -10.14752,-1.33289 -18.08023,-1.4548 -18.08023,-1.42229 0,-0.0325 -7.89983,0.0569 -18.08024,1.3654 l -4.56034,11.36208 -3.14711,2.31631 -0.0321,11.3377 3.14712,3.55166 h 0.44969 l -0.032,7.07895 c 0,1.39791 1.02765,1.33289 1.02765,1.33289 l 4.65654,0.0325 c 0,0 0.99561,0.0325 1.02765,-1.33289 v -7.11146 l 15.44697,0.0325 h 0.0962"
       id="path4"
       inkscape:connector-curvature="0"
       style="fill:#f7fbf5" />
    <path
       d="m 159.36562,183.23389 14.54756,0.065 -0.0321,6.66445 c 0,1.30038 0.96354,1.26787 0.96354,1.26787 h 4.40003 c 0,0 0.93147,0.065 0.93147,-1.23536 l 0.0321,-6.69696 h 0.41682 l 2.95472,-3.33223 0.0321,-10.67125 -2.95391,-2.18627 -4.27177,-10.73627 c -9.56957,-1.30039 -17.02052,-1.39791 -17.02052,-1.3654 0,-0.0325 -7.45012,0.0325 -17.02052,1.27599 l -4.30301,10.69564 -2.9868,2.21878 v 10.63874 l 2.95473,3.36474 h 0.41683 l -0.0321,6.69696 c 0,1.30851 0.96353,1.276 0.96353,1.276 h 4.36797 c 0,0 0.96353,0.0569 0.96353,-1.276 l 0.0321,-6.69696 14.54755,0.0325 h 0.0962"
       id="path6"
       inkscape:connector-curvature="0"
       style="fill:#2a2d2f" />
    <path
       d="m 159.33356,166.31268 c 0,-0.065 12.55636,0.34947 18.69026,0.82899 l 0.0321,-0.0325 -3.2433,-8.1924 c -9.56957,-1.26787 -15.44696,-1.39791 -15.44696,-1.33289 0,-0.065 -5.87657,0.0325 -15.44696,1.26787 l -3.30742,8.1924 0.0641,0.0325 c 6.1339,-0.47952 18.6582,-0.82899 18.6582,-0.76397"
       id="path8"
       inkscape:connector-curvature="0"
       style="fill:#f7fbf5" />
    <path
       d="m 139.58358,177.45532 -0.16113,-5.74606 -1.28418,0.0325 0.16031,5.74606 1.285,-0.0325"
       id="path10"
       inkscape:connector-curvature="0"
       style="fill:#f7fbf5" />
    <path
       d="m 180.43265,177.93483 -0.16031,-5.71355 -1.28499,0.0244 0.16113,5.75418 1.28417,-0.065"
       id="path12"
       inkscape:connector-curvature="0"
       style="fill:#f7fbf5" />
    <path
       d="m 182.93768,207.51851 17.98405,0.0325 v 8.28993 c 0,1.61735 1.18797,1.55233 1.18797,1.55233 l 5.42768,0.0325 c 0,0 1.15592,0.065 1.15592,-1.55233 l 0.0321,-8.28993 h 0.51384 l 3.69299,-4.12871 0.0321,-13.207 -3.66094,-2.7308 -5.29862,-13.26389 c -11.81808,-1.59297 -21.06702,-1.71488 -21.06702,-1.65799 0,-0.0569 -9.21687,0.0325 -21.06703,1.56046 l -5.33068,13.27202 -3.66176,2.69829 -0.0321,13.207 3.66175,4.15309 h 0.51384 l -0.0329,8.25742 c 0,1.61735 1.1888,1.55233 1.1888,1.55233 l 5.42686,0.0325 c 0,0 1.18879,0.065 1.18879,-1.55233 v -8.2899 l 18.01613,0.0325 h 0.12825"
       id="path14"
       inkscape:connector-curvature="0"
       style="fill:#f7fbf5" />
    <path
       d="m 182.93768,206.78704 16.95639,0.065 -0.0321,7.77791 c 0,1.56046 1.12384,1.49544 1.12384,1.49544 h 5.1383 c 0,0 1.09179,0.065 1.09179,-1.46293 l 0.0321,-7.81042 h 0.48177 l 3.46855,-3.86863 0.0321,-12.45115 -3.46856,-2.56826 -4.9451,-12.50804 c -11.17601,-1.49544 -19.87905,-1.64986 -19.87905,-1.58484 0,-0.065 -8.70305,0.065 -19.847,1.48731 l -5.04128,12.47554 -3.46856,2.57638 v 12.44302 l 3.43567,3.90927 h 0.48177 v 7.81042 c 0,1.51982 1.0926,1.4548 1.0926,1.4548 h 5.13831 c 0,0 1.09178,0.065 1.09178,-1.4548 l 0.0321,-7.81042 16.9564,0.0244 h 0.12825"
       id="path16"
       inkscape:connector-curvature="0"
       style="fill:#2a2d2f" />
    <path
       d="m 182.90562,187.04563 c 0,-0.065 14.64373,0.4145 21.77324,0.98341 l 0.0641,-0.0325 -3.78918,-9.5578 c -11.176,-1.48731 -18.01611,-1.64986 -18.01611,-1.55233 0,-0.0975 -6.84011,0.0325 -18.01611,1.4548 l -3.82208,9.5578 h 0.0329 c 7.16073,-0.50389 21.77324,-0.91839 21.77324,-0.85337"
       id="path18"
       inkscape:connector-curvature="0"
       style="fill:#f7fbf5" />
    <path
       d="m 159.87944,200.02506 -0.19237,-6.69696 -1.50942,0.065 0.19238,6.66445 1.50941,-0.0325"
       id="path20"
       inkscape:connector-curvature="0"
       style="fill:#f7fbf5" />
    <path
       d="m 207.50533,201.58552 -0.16113,-6.69697 -1.50862,0.0325 0.16033,6.69697 1.50942,-0.0325"
       id="path22"
       inkscape:connector-curvature="0"
       style="fill:#f7fbf5" />
    <path
       d="m 207.95503,237.96369 22.09468,0.0325 -0.032,10.19174 c 0,1.96683 1.47654,1.90994 1.47654,1.90994 h 6.64772 c 0,0 1.4453,0.0894 1.4453,-1.90994 l 0.0321,-10.15923 h 0.64291 l 4.49538,-5.07961 0.0641,-16.22226 -4.4954,-3.33222 -6.4874,-16.28728 c -14.54756,-1.93432 -25.88389,-2.12937 -25.88389,-2.06436 0,-0.065 -11.30425,0.065 -25.8847,1.93432 l -6.51866,16.28728 -4.52827,3.34035 -0.0321,16.18975 4.4954,5.11212 h 0.64289 l -0.0321,10.15923 c 0,1.99934 1.44448,1.90181 1.44448,1.90181 l 6.67979,0.0325 c 0,0 1.4453,0.065 1.4453,-1.90181 l 0.0321,-10.19174 22.0947,0.0569 h 0.16113"
       id="path24"
       inkscape:connector-curvature="0"
       style="fill:#f7fbf5" />
    <path
       d="m 207.95503,237.0778 20.84177,0.0325 -0.0321,9.59031 c 0,1.8693 1.34912,1.80428 1.34912,1.80428 h 6.29421 c 0,0 1.34912,0.065 1.34912,-1.77177 l 0.032,-9.59031 h 0.61002 l 4.2389,-4.79516 0.0321,-15.27135 -4.20683,-3.1453 -6.13389,-15.36075 c -13.68104,-1.84492 -24.37446,-1.99934 -24.37446,-1.94245 0,-0.0569 -10.66218,0.065 -24.37528,1.84492 l -6.16595,15.33637 -4.27096,3.13717 -0.0321,15.27136 4.23889,4.79515 h 0.61003 l -0.0321,9.59031 c 0,1.8693 1.38117,1.7799 1.38117,1.7799 l 6.29421,0.0325 c 0,0 1.34912,0.0569 1.34912,-1.81241 l 0.032,-9.59031 20.80972,0.065 h 0.16113"
       id="path26"
       inkscape:connector-curvature="0"
       style="fill:#2a2d2f" />
    <path
       d="m 207.92297,212.82569 c 0,-0.0975 17.95198,0.47139 26.75122,1.17034 l 0.0641,-0.0325 -4.68861,-11.74407 c -13.68102,-1.8124 -22.09468,-1.96682 -22.09468,-1.9018 0,-0.065 -8.41448,0.0569 -22.12676,1.80428 l -4.68941,11.75219 h 0.0649 c 8.76718,-0.64206 26.71917,-1.14596 26.71917,-1.04843"
       id="path28"
       inkscape:connector-curvature="0"
       style="fill:#f7fbf5" />
    <path
       d="m 215.63042,227.99951 -0.12907,-3.55979 -15.70348,0.0975 0.12826,3.55979 15.70429,-0.0975"
       id="path30"
       inkscape:connector-curvature="0"
       style="fill:#f7fbf5" />
    <path
       d="m 179.63026,228.76349 -0.22527,-8.22491 -1.83006,0.065 0.19238,8.19241 1.86295,-0.0325"
       id="path32"
       inkscape:connector-curvature="0"
       style="fill:#f7fbf5" />
    <path
       d="m 238.10986,229.48682 -0.19238,-8.21678 -1.86294,0.0325 0.22527,8.21678 1.83005,-0.0325"
       id="path34"
       inkscape:connector-curvature="0"
       style="fill:#f7fbf5" />
  </g>
</svg>
