<?xml version="1.0" encoding="UTF-8" standalone="no"?>
<svg
   xmlns:dc="http://purl.org/dc/elements/1.1/"
   xmlns:cc="http://creativecommons.org/ns#"
   xmlns:rdf="http://www.w3.org/1999/02/22-rdf-syntax-ns#"
   xmlns:svg="http://www.w3.org/2000/svg"
   xmlns="http://www.w3.org/2000/svg"
   xmlns:sodipodi="http://sodipodi.sourceforge.net/DTD/sodipodi-0.dtd"
   xmlns:inkscape="http://www.inkscape.org/namespaces/inkscape"
   id="Nederlands_verkeersbord_J27"
   width="216"
   height="185"
   viewBox="0 0 216 185"
   version="1.1"
   sodipodi:docname="Nederlands_verkeersbord_J27.svg"
   inkscape:version="0.92.3 (2405546, 2018-03-11)">
  <metadata
     id="metadata10">
    <rdf:RDF>
      <cc:Work
         rdf:about="">
        <dc:format>image/svg+xml</dc:format>
        <dc:type
           rdf:resource="http://purl.org/dc/dcmitype/StillImage" />
        <dc:title></dc:title>
      </cc:Work>
    </rdf:RDF>
  </metadata>
  <defs
     id="defs8" />
  <sodipodi:namedview
     pagecolor="#ffffff"
     bordercolor="#666666"
     borderopacity="1"
     objecttolerance="10"
     gridtolerance="10"
     guidetolerance="10"
     inkscape:pageopacity="0"
     inkscape:pageshadow="2"
     inkscape:window-width="640"
     inkscape:window-height="480"
     id="namedview6"
     showgrid="false"
     inkscape:zoom="0.78666667"
     inkscape:cx="175"
     inkscape:cy="150"
     inkscape:window-x="0"
     inkscape:window-y="0"
     inkscape:window-maximized="0"
     inkscape:current-layer="Nederlands_verkeersbord_J27" />
  <path
     id="rode_driehoek"
     d="m -55.101695,225.67797 c 0,0 16.820331,0 0,0 -14.916539,0 -7.219509,-16.14695 -7.219509,-16.14695 L 98.805095,-66.247534 c 0,0 -3.50615,6.11627 0,0 6.253325,-10.92774 14.404105,-10.44659 20.211945,-0.47299 l 161.0933,276.251544 c 0,0 7.70529,16.14695 -7.21203,16.14695 -16.82781,0 0,0 0,0 H -55.101695"
     inkscape:connector-curvature="0"
     style="fill:#c1121c" />
  <path
     id="witte_driehoek"
     d="M 109.38131,-0.6240339 217.10683,185.2535 H 0.19556608 L 109.38131,-0.6240339"
     inkscape:connector-curvature="0"
     style="fill:#f7fbf5" />
  <path
     id="zwart_symbool"
     d="m 105.87837,97.920816 c 2.76877,4.235764 4.0213,7.925774 7.01256,8.438954 2.99951,0.50503 15.0387,0.50503 21.54035,1.97125 6.50167,1.49881 19.53795,7.66511 20.27958,8.9114 0.22248,0.35026 1.86233,0.98563 1.86233,0.98563 0,0 4.82886,-0.16291 5.63641,0.38285 1.1207,0.72496 1.63984,1.97126 0.3873,2.70437 -1.26078,0.75755 -4.38388,0.38285 -4.38388,0.38285 l 0.48618,7.79543 c 0,0 1.38438,6.29663 4.37564,9.2861 3.15607,3.1198 9.91317,3.08722 11.14099,4.4557 1.25254,1.33589 -0.45321,15.08583 0.77459,18.80842 2.73582,8.39821 4.85359,6.29662 6.11436,7.28225 1.25254,0.98563 2.50508,7.79544 1.89529,8.30861 -0.64275,0.47246 -6.75711,-3.21755 -8.78424,-4.96887 -1.99416,-1.71874 -1.73871,-6.29663 -1.73871,-6.29663 0,0 -1.83761,-6.97272 -3.12311,-10.53239 -1.35143,-3.65742 -2.99125,-7.02974 -4.89479,-8.39821 -1.86232,-1.36848 -10.39935,0.47245 -16.63732,-2.86729 -5.34801,-2.8347 -14.3877,-14.57266 -14.3877,-14.57266 0,0 -15.03869,0.0978 -19.54618,-0.13033 -4.49925,-0.25251 -8.61943,-3.9751 -8.61943,-3.9751 l -4.1202,0.38285 c -3.765855,0 -9.402275,-4.83855 -13.299975,-6.67947 -3.76585,-1.81649 -6.3698,-2.61477 -7.24329,-1.84908 -0.79932,0.66795 4.12018,14.70299 4.12018,14.70299 l 3.12311,-0.25252 3.15607,6.45954 -8.14149,-0.86344 c 0,0 -7.27626,-14.60524 -8.49583,-18.58034 -1.26078,-3.95067 -1.77169,-4.32537 -1.03004,-5.57166 0.76634,-1.23815 -0.35435,-1.33589 4.76293,-1.58841 5.24089,-0.25252 7.5317,0.4806 8.52879,-1.49881 0.99709,-1.97126 2.21666,-2.22378 1.99417,-4.70821 -0.45321,-4.23577 -0.25545,-9.897034 -1.25254,-13.587034 -0.99708,-3.72259 -0.99708,-5.95451 -3.5104,-7.19265 -2.51331,-1.23815 -7.88604,-1.23815 -8.88313,-2.73696 -0.99708,-1.46622 -1.38438,-3.2094 -1.63982,-4.20318 -0.23074,-0.98563 15.77207,-8.39822 15.77207,-8.39822 0,0 -3.86473,-1.11596 -6.76535,-3.47006 -2.99125,-2.44371 -3.24671,-3.46193 -2.47211,-4.19504 0.73339,-0.73311 1.25253,0.25252 4.72998,2.22378 3.5104,1.97126 8.75128,2.48444 12.03918,1.97126 3.24672,-0.47245 5.240895,-1.23815 6.724175,-2.73696 1.51621,-1.45808 3.02421,-2.32152 1.77167,-2.82656 -0.86524,-0.35026 -1.25254,-0.35026 -3.25495,-0.25251 -2.538045,0.15477 -5.504575,-1.34404 -5.240895,-2.45186 0.44499,-2.00384 0.35435,-1.01821 2.85942,-1.01821 2.513325,0 3.642255,0.63536 4.120195,-1.84907 0.51914,-2.4763 -0.7334,-6.42696 -3.24671,-8.9114 -2.513325,-2.47629 -5.858915,-4.00768 -5.117275,-6.67947 0.38729,-1.36848 8.850165,4.87113 10.391115,7.41258 0.55211,0.92861 2.29083,4.48828 3.1231,6.58987 0.48619,1.20557 2.02715,0.92047 2.61221,-0.38284 0.93115,-2.10159 -0.13185,-6.0767 -0.87348,-8.04795 -1.31847,-3.53524 -4.2438,-4.7408 -2.60396,-5.82418 0.74163,-0.4806 3.86473,1.49066 4.98542,4.57788 1.64808,4.48828 1.64808,4.58603 1.64808,4.58603 0.6098,-0.13033 1.73873,-2.10159 1.25254,-7.54292 -0.51914,-5.44132 -5.79299,-10.05179 -4.89479,-11.00484 1.26079,-1.36847 5.85891,5.09107 6.98784,10.75233 1.12894,5.82417 -0.93116,13.01683 -4.86183,18.19749 -4.12017,5.44133 -11.14098,10.14954 -11.14098,10.14954 0,0 1.12893,2.45186 0.3873,3.33974 -1.63984,1.88166 -4.021305,3.34788 -4.021305,3.34788 0,0 2.381465,4.07285 3.634005,8.78107 1.26078,4.70821 3.99658,13.45669 3.99658,13.45669"
     inkscape:connector-curvature="0"
     style="fill:#2a2d2f" />
</svg>
