<?xml version="1.0" encoding="UTF-8" standalone="no"?>
<svg
   xmlns:dc="http://purl.org/dc/elements/1.1/"
   xmlns:cc="http://creativecommons.org/ns#"
   xmlns:rdf="http://www.w3.org/1999/02/22-rdf-syntax-ns#"
   xmlns:svg="http://www.w3.org/2000/svg"
   xmlns="http://www.w3.org/2000/svg"
   xmlns:sodipodi="http://sodipodi.sourceforge.net/DTD/sodipodi-0.dtd"
   xmlns:inkscape="http://www.inkscape.org/namespaces/inkscape"
   id="Nederlands_verkeersbord_J5"
   width="216"
   height="185"
   viewBox="0 0 216 185"
   version="1.1"
   sodipodi:docname="Nederlands_verkeersbord_J5_S-bocht(en),_eerst_naar_links.svg"
   inkscape:version="0.92.3 (2405546, 2018-03-11)">
  <metadata
     id="metadata10">
    <rdf:RDF>
      <cc:Work
         rdf:about="">
        <dc:format>image/svg+xml</dc:format>
        <dc:type
           rdf:resource="http://purl.org/dc/dcmitype/StillImage" />
        <dc:title></dc:title>
      </cc:Work>
    </rdf:RDF>
  </metadata>
  <defs
     id="defs8" />
  <sodipodi:namedview
     pagecolor="#ffffff"
     bordercolor="#666666"
     borderopacity="1"
     objecttolerance="10"
     gridtolerance="10"
     guidetolerance="10"
     inkscape:pageopacity="0"
     inkscape:pageshadow="2"
     inkscape:window-width="640"
     inkscape:window-height="480"
     id="namedview6"
     showgrid="false"
     inkscape:zoom="0.78666667"
     inkscape:cx="175"
     inkscape:cy="116.54063"
     inkscape:window-x="0"
     inkscape:window-y="0"
     inkscape:window-maximized="0"
     inkscape:current-layer="Nederlands_verkeersbord_J5" />
  <path
     id="rode_driehoek"
     d="m -55.101695,225.67797 c 0,0 16.820331,0 0,0 -14.916539,0 -7.219509,-16.14695 -7.219509,-16.14695 L 98.805095,-66.247534 c 0,0 -3.50615,6.11627 0,0 6.253325,-10.92774 14.404105,-10.44659 20.211945,-0.47299 l 161.0933,276.251544 c 0,0 7.70529,16.14695 -7.21203,16.14695 -16.82781,0 0,0 0,0 H -55.101695"
     inkscape:connector-curvature="0"
     style="fill:#c1121c" />
  <path
     id="witte_driehoek"
     d="M 109.38131,-0.6240339 217.10683,185.2535 H 0.19556608 L 109.38131,-0.6240339"
     inkscape:connector-curvature="0"
     style="fill:#f7fbf5" />
  <path
     id="zwart_symbool"
     d="m 83.190875,65.507796 -14.17886,24.97027 v 31.608354 c 0,0 1.22503,29.46361 34.866375,29.46361 0,0 15.62823,-0.22018 25.26337,-8.79097 0,0 12.98601,-10.92755 12.98601,3.34351 l -0.0322,36.82747 15.43521,-10.67474 15.14483,10.92755 v -45.39827 c 0,0 -1.22419,-29.49623 -34.8977,-29.49623 0,0 -15.59689,0.2528 -25.23122,8.82359 0,0 -12.986825,10.92755 -12.986825,-3.34351 V 91.660526 l -16.36901,-26.15273"
     inkscape:connector-curvature="0"
     style="fill:#2a2d2f" />
</svg>
