<?xml version="1.0" encoding="UTF-8" standalone="no"?>
<svg
   xmlns:dc="http://purl.org/dc/elements/1.1/"
   xmlns:cc="http://creativecommons.org/ns#"
   xmlns:rdf="http://www.w3.org/1999/02/22-rdf-syntax-ns#"
   xmlns:svg="http://www.w3.org/2000/svg"
   xmlns="http://www.w3.org/2000/svg"
   xmlns:sodipodi="http://sodipodi.sourceforge.net/DTD/sodipodi-0.dtd"
   xmlns:inkscape="http://www.inkscape.org/namespaces/inkscape"
   id="Nederlands_verkeersbord_J28"
   width="216"
   height="185"
   viewBox="0 0 216 185"
   version="1.1"
   sodipodi:docname="Nederlands_verkeersbord_J28.svg"
   inkscape:version="0.92.3 (2405546, 2018-03-11)">
  <metadata
     id="metadata10">
    <rdf:RDF>
      <cc:Work
         rdf:about="">
        <dc:format>image/svg+xml</dc:format>
        <dc:type
           rdf:resource="http://purl.org/dc/dcmitype/StillImage" />
        <dc:title></dc:title>
      </cc:Work>
    </rdf:RDF>
  </metadata>
  <defs
     id="defs8" />
  <sodipodi:namedview
     pagecolor="#ffffff"
     bordercolor="#666666"
     borderopacity="1"
     objecttolerance="10"
     gridtolerance="10"
     guidetolerance="10"
     inkscape:pageopacity="0"
     inkscape:pageshadow="2"
     inkscape:window-width="640"
     inkscape:window-height="480"
     id="namedview6"
     showgrid="false"
     inkscape:zoom="0.78666667"
     inkscape:cx="175"
     inkscape:cy="150"
     inkscape:window-x="0"
     inkscape:window-y="0"
     inkscape:window-maximized="0"
     inkscape:current-layer="Nederlands_verkeersbord_J28" />
  <path
     id="rode_driehoek"
     d="m -56.372881,225.67797 c 0,0 16.820331,0 0,0 -14.916539,0 -7.219509,-16.14695 -7.219509,-16.14695 L 97.533909,-66.247534 c 0,0 -3.50615,6.11627 0,0 6.253321,-10.92774 14.404101,-10.44659 20.211941,-0.47299 l 161.0933,276.251544 c 0,0 7.70529,16.14695 -7.21203,16.14695 -16.82781,0 0,0 0,0 H -56.372881"
     inkscape:connector-curvature="0"
     style="fill:#c1121c" />
  <path
     id="witte_driehoek"
     d="M 108.11012,-0.6240339 215.83564,185.2535 H -1.0756204 L 108.11012,-0.6240339"
     inkscape:connector-curvature="0"
     style="fill:#f7fbf5" />
  <path
     id="zwart_symbool"
     d="m 70.265649,101.09578 c 1.32355,0.35163 3.39162,2.01981 3.39162,2.01981 l 16.54451,4.57115 c 0,0 62.099841,-0.6133 64.043811,-0.31892 0.96786,0.18808 1.58001,1.02217 2.54786,2.90297 0,2.5268 0.0331,26.38836 0,35.55519 0,2.29784 0.71142,2.13429 1.42284,3.35272 0.7114,1.17754 0.55424,4.44031 0,4.62839 -0.54598,0.19626 -3.39163,-2.68218 -3.74735,-4.30947 -0.3557,-1.66001 0,-4.1541 0,-4.1541 0,0 0.16546,-25.30078 0,-26.06127 -0.25643,-1.43922 -1.35664,-1.60277 -1.71236,-0.64602 -0.35569,0.96493 0,47.37149 0,47.37149 l -0.57904,5.20899 h -5.91467 l 3.16827,-7.53954 c 0,0 0.77759,-2.39597 0.45498,-6.51736 -0.3309,-4.14592 -4.94682,-9.19954 -4.94682,-9.19954 0,0 -1.32356,0.44976 -5.17016,-0.50699 -3.87968,-0.95676 -6.42754,-6.0349 -6.42754,-6.0349 0,0 -26.88483,-0.73596 -28.34075,0.12266 -1.42283,0.83409 -4.36775,3.6144 -4.69037,6.80357 -0.322621,3.16464 -0.12408,11.50555 -0.446701,15.9704 -0.32262,4.44031 -1.00094,6.9017 -1.00094,6.9017 h -5.07917 c 0,0 1.84472,-4.18682 2.55613,-7.62949 1.25738,-6.3947 -2.3576,-17.28695 -3.62326,-19.20046 -1.29047,-1.9135 -3.4578,-1.05488 -6.03873,-4.57114 -2.58923,-3.50809 -5.13708,-10.15629 -5.13708,-10.15629 0,0 -2.55614,-1.49646 -6.08011,-4.34219 -3.54881,-2.87843 -7.61875,-6.45194 -7.61875,-6.45194 0,0 -3.23445,-0.31892 -5.65823,0.12266 -0.87685,0.16355 -0.84376,0.67055 -1.67926,0.83409 -3.23445,0.63784 -3.49089,0 -3.49089,0 l -2.52304,-2.90296 c 0,0 8.66105,-11.53827 8.8844,-12.36418 0.26472,-0.83409 -2.64713,-2.40415 -2.77121,-2.97656 -0.0993,-0.60513 5.90639,-0.95675 5.90639,-0.95675 0,0 2.42378,0.12266 3.75562,0.47428"
     inkscape:connector-curvature="0"
     style="fill:#2a2d2f" />
</svg>
