<?xml version="1.0" encoding="UTF-8" standalone="no"?>
<svg
   xmlns:dc="http://purl.org/dc/elements/1.1/"
   xmlns:cc="http://creativecommons.org/ns#"
   xmlns:rdf="http://www.w3.org/1999/02/22-rdf-syntax-ns#"
   xmlns:svg="http://www.w3.org/2000/svg"
   xmlns="http://www.w3.org/2000/svg"
   xmlns:sodipodi="http://sodipodi.sourceforge.net/DTD/sodipodi-0.dtd"
   xmlns:inkscape="http://www.inkscape.org/namespaces/inkscape"
   id="Nederlands_verkeersbord_J9"
   width="216"
   height="185"
   viewBox="0 0 216 185"
   version="1.1"
   sodipodi:docname="Nederlands_verkeersbord_J10_Overweg_met_slagbomen.svg"
   inkscape:version="0.92.3 (2405546, 2018-03-11)">
  <metadata
     id="metadata24">
    <rdf:RDF>
      <cc:Work
         rdf:about="">
        <dc:format>image/svg+xml</dc:format>
        <dc:type
           rdf:resource="http://purl.org/dc/dcmitype/StillImage" />
        <dc:title></dc:title>
      </cc:Work>
    </rdf:RDF>
  </metadata>
  <defs
     id="defs22" />
  <sodipodi:namedview
     pagecolor="#ffffff"
     bordercolor="#666666"
     borderopacity="1"
     objecttolerance="10"
     gridtolerance="10"
     guidetolerance="10"
     inkscape:pageopacity="0"
     inkscape:pageshadow="2"
     inkscape:window-width="640"
     inkscape:window-height="480"
     id="namedview20"
     showgrid="false"
     inkscape:zoom="0.78666667"
     inkscape:cx="175"
     inkscape:cy="150"
     inkscape:window-x="0"
     inkscape:window-y="0"
     inkscape:window-maximized="0"
     inkscape:current-layer="Nederlands_verkeersbord_J9" />
  <path
     id="rode_driehoek"
     d="m -55.101695,225.67797 c 0,0 16.820331,0 0,0 -14.916539,0 -7.219509,-16.14695 -7.219509,-16.14695 L 98.805095,-66.247534 c 0,0 -3.50615,6.11627 0,0 6.253325,-10.92774 14.404105,-10.44659 20.211945,-0.47299 l 161.0933,276.251544 c 0,0 7.70529,16.14695 -7.21203,16.14695 -16.82781,0 0,0 0,0 H -55.101695"
     inkscape:connector-curvature="0"
     style="fill:#c1121c" />
  <path
     id="witte_driehoek"
     d="M 109.38131,-0.6240339 217.10683,185.2535 H 0.19556608 L 109.38131,-0.6240339"
     inkscape:connector-curvature="0"
     style="fill:#f7fbf5" />
  <g
     id="zwart_symbool"
     transform="translate(-66.101695,-74.322034)">
    <path
       d="m 217.19744,162.36344 6.24619,10.44684 v 82.48809 H 211.0512 v -82.54571 l 6.14624,-10.38922"
       id="path4"
       inkscape:connector-curvature="0"
       style="fill:#2a2d2f" />
    <path
       d="m 197.00144,162.36344 6.24618,10.44684 v 82.48809 h -12.40077 v -82.54571 l 6.15459,-10.38922"
       id="path6"
       inkscape:connector-curvature="0"
       style="fill:#2a2d2f" />
    <path
       d="m 176.7971,162.36344 6.24619,10.44684 v 82.48809 h -12.36745 v -82.54571 l 6.12126,-10.38922"
       id="path8"
       inkscape:connector-curvature="0"
       style="fill:#2a2d2f" />
    <path
       d="m 156.59276,162.36344 6.24619,10.44684 v 82.48809 h -12.35912 v -82.54571 l 6.11293,-10.38922"
       id="path10"
       inkscape:connector-curvature="0"
       style="fill:#2a2d2f" />
    <path
       d="m 136.38842,162.36344 6.24619,10.44684 v 82.48809 h -12.35912 v -82.54571 l 6.11293,-10.38922"
       id="path12"
       inkscape:connector-curvature="0"
       style="fill:#2a2d2f" />
    <path
       d="m 121.62244,199.21141 h 110.47424 v -13.0812 H 121.62244 v 13.0812"
       id="path14"
       inkscape:connector-curvature="0"
       style="fill:#2a2d2f" />
    <path
       d="M 121.62244,242.94985 H 232.09668 V 229.86043 H 121.62244 v 13.08942"
       id="path16"
       inkscape:connector-curvature="0"
       style="fill:#2a2d2f" />
  </g>
</svg>
