<?xml version="1.0" encoding="UTF-8" standalone="no"?>
<svg
   xmlns:dc="http://purl.org/dc/elements/1.1/"
   xmlns:cc="http://creativecommons.org/ns#"
   xmlns:rdf="http://www.w3.org/1999/02/22-rdf-syntax-ns#"
   xmlns:svg="http://www.w3.org/2000/svg"
   xmlns="http://www.w3.org/2000/svg"
   xmlns:sodipodi="http://sodipodi.sourceforge.net/DTD/sodipodi-0.dtd"
   xmlns:inkscape="http://www.inkscape.org/namespaces/inkscape"
   id="Nederlands_verkeersbord_J15"
   width="216"
   height="185"
   viewBox="0 0 216 185"
   version="1.1"
   sodipodi:docname="Nederlands_verkeersbord_J15_Beweegbare_brug.svg"
   inkscape:version="0.92.3 (2405546, 2018-03-11)">
  <metadata
     id="metadata18">
    <rdf:RDF>
      <cc:Work
         rdf:about="">
        <dc:format>image/svg+xml</dc:format>
        <dc:type
           rdf:resource="http://purl.org/dc/dcmitype/StillImage" />
        <dc:title></dc:title>
      </cc:Work>
    </rdf:RDF>
  </metadata>
  <defs
     id="defs16" />
  <sodipodi:namedview
     pagecolor="#ffffff"
     bordercolor="#666666"
     borderopacity="1"
     objecttolerance="10"
     gridtolerance="10"
     guidetolerance="10"
     inkscape:pageopacity="0"
     inkscape:pageshadow="2"
     inkscape:window-width="640"
     inkscape:window-height="480"
     id="namedview14"
     showgrid="false"
     inkscape:zoom="0.78666667"
     inkscape:cx="175"
     inkscape:cy="134.19447"
     inkscape:window-x="0"
     inkscape:window-y="0"
     inkscape:window-maximized="0"
     inkscape:current-layer="Nederlands_verkeersbord_J15" />
  <path
     id="rode_driehoek"
     d="m -55.101695,225.67797 c 0,0 16.820331,0 0,0 -14.916539,0 -7.219509,-16.14695 -7.219509,-16.14695 L 98.805095,-66.247534 c 0,0 -3.50615,6.11627 0,0 6.253325,-10.92774 14.404105,-10.44659 20.211945,-0.47299 l 161.0933,276.251544 c 0,0 7.70529,16.14695 -7.21203,16.14695 -16.82781,0 0,0 0,0 H -55.101695"
     inkscape:connector-curvature="0"
     style="fill:#c1121c" />
  <path
     id="witte_driehoek"
     d="M 109.38131,-0.6240339 217.10683,185.2535 H 0.19556608 L 109.38131,-0.6240339"
     inkscape:connector-curvature="0"
     style="fill:#f7fbf5" />
  <g
     id="zwart_symbool"
     transform="translate(-66.101695,-74.322034)">
    <path
       d="M 137.1976,256.65547 V 198.04508 H 106.40146 L 71.924316,256.65547 H 137.1976"
       id="path4"
       inkscape:connector-curvature="0"
       style="fill:#2a2d2f" />
    <path
       d="m 212.51294,256.65547 v -58.61039 h 30.79616 l 34.47712,58.61039 h -65.27328"
       id="path6"
       inkscape:connector-curvature="0"
       style="fill:#2a2d2f" />
    <path
       d="m 149.05119,209.2553 57.09241,-54.17043 -10.88577,-11.21022 -57.09242,54.17043 10.88578,11.21022"
       id="path8"
       inkscape:connector-curvature="0"
       style="fill:#2a2d2f" />
    <path
       style="fill:none;stroke:#2a2d2f;stroke-width:5.37035704"
       d="m 134.83186,241.16067 c 5.69104,0 7.72591,-5.23306 13.31769,-5.23306 5.8813,0 6.84913,5.11042 12.7304,5.11042 5.68279,0 8.56139,-5.11042 14.31033,-5.11042 5.94746,0 7.62666,5.23306 13.50796,5.23306 5.94748,0 6.91528,-4.40723 12.6973,-4.40723 5.78204,0 8.4373,4.53806 14.25243,4.53806 m -80.81611,11.78258 c 5.69104,0 7.72591,-5.26578 13.31769,-5.26578 5.8813,0 6.84913,5.14313 12.7304,5.14313 5.68279,0 8.56139,-5.14313 14.31033,-5.14313 5.94746,0 7.62666,5.26578 13.50796,5.26578 5.94748,0 6.91528,-4.43992 12.6973,-4.43992 5.78204,0 8.4373,4.53804 14.25243,4.53804"
       id="path10"
       inkscape:connector-curvature="0" />
  </g>
</svg>
