<?xml version="1.0" encoding="UTF-8" standalone="no"?>
<svg
   xmlns:dc="http://purl.org/dc/elements/1.1/"
   xmlns:cc="http://creativecommons.org/ns#"
   xmlns:rdf="http://www.w3.org/1999/02/22-rdf-syntax-ns#"
   xmlns:svg="http://www.w3.org/2000/svg"
   xmlns="http://www.w3.org/2000/svg"
   xmlns:sodipodi="http://sodipodi.sourceforge.net/DTD/sodipodi-0.dtd"
   xmlns:inkscape="http://www.inkscape.org/namespaces/inkscape"
   id="Nederlands_verkeersbord_J24"
   width="216"
   height="185"
   viewBox="0 0 216 185"
   version="1.1"
   sodipodi:docname="Nederlands_verkeersbord_J24.svg"
   inkscape:version="0.92.3 (2405546, 2018-03-11)">
  <metadata
     id="metadata26">
    <rdf:RDF>
      <cc:Work
         rdf:about="">
        <dc:format>image/svg+xml</dc:format>
        <dc:type
           rdf:resource="http://purl.org/dc/dcmitype/StillImage" />
        <dc:title></dc:title>
      </cc:Work>
    </rdf:RDF>
  </metadata>
  <defs
     id="defs24" />
  <sodipodi:namedview
     pagecolor="#ffffff"
     bordercolor="#666666"
     borderopacity="1"
     objecttolerance="10"
     gridtolerance="10"
     guidetolerance="10"
     inkscape:pageopacity="0"
     inkscape:pageshadow="2"
     inkscape:window-width="800"
     inkscape:window-height="480"
     id="namedview22"
     showgrid="false"
     inkscape:zoom="0.78666667"
     inkscape:cx="175"
     inkscape:cy="175.03245"
     inkscape:window-x="0"
     inkscape:window-y="0"
     inkscape:window-maximized="0"
     inkscape:current-layer="Nederlands_verkeersbord_J24" />
  <path
     id="rode_driehoek"
     d="m -53.830508,226.94915 c 0,0 16.820331,0 0,0 -14.916539,0 -7.219509,-16.14695 -7.219509,-16.14695 L 100.07628,-64.976347 c 0,0 -3.506148,6.11627 0,0 6.25332,-10.92774 14.4041,-10.44659 20.21194,-0.47299 L 281.38152,210.8022 c 0,0 7.70529,16.14695 -7.21203,16.14695 -16.82781,0 0,0 0,0 H -53.830508"
     inkscape:connector-curvature="0"
     style="fill:#c1121c" />
  <path
     id="witte_driehoek"
     d="M 110.65249,0.64715254 218.37801,186.52468 H 1.4667525 L 110.65249,0.64715254"
     inkscape:connector-curvature="0"
     style="fill:#f7fbf5" />
  <g
     id="zwart_symbool"
     transform="translate(-64.830508,-73.050847)">
    <path
       d="m 129.87553,252.86155 c 15.82319,0 28.64037,-12.66985 28.64037,-28.31113 0,-15.64129 -12.81718,-28.31114 -28.64037,-28.31114 -15.81482,0 -28.63202,12.66985 -28.63202,28.31114 0,15.64128 12.8172,28.31113 28.63202,28.31113"
       id="path4"
       inkscape:connector-curvature="0"
       style="fill:#2a2d2f" />
    <path
       d="m 129.85048,245.8952 c 11.9321,0 21.61806,-9.57462 21.61806,-21.3778 0,-11.80318 -9.68596,-21.37779 -21.61806,-21.37779 -11.94044,0 -21.6264,9.57461 -21.6264,21.37779 0,11.80318 9.68596,21.3778 21.6264,21.3778"
       id="path6"
       inkscape:connector-curvature="0"
       style="fill:#f7fbf5" />
    <path
       d="m 167.15812,168.93513 v -6.93333 h -12.39135 c -5.61117,0 -7.20602,6.93333 -7.20602,6.93333 -3.88273,10.96128 -19.83116,55.45021 -19.83116,55.45021 -1.60318,4.03619 4.85969,6.28953 6.35433,2.45143 1.50299,-3.82985 19.73931,-54.51751 19.73931,-54.51751 1.20239,-3.87111 4.82627,-3.38413 4.82627,-3.38413 h 8.50862"
       id="path8"
       inkscape:connector-curvature="0"
       style="fill:#2a2d2f" />
    <path
       d="m 222.15097,221.06724 c -2.83899,-5.99239 -13.27644,-28.04701 -19.86457,-42.07876 h -54.27474 l -4.33364,11.38223 33.62529,37.59685 h 40.87308 c 7.95751,0 3.97458,-6.90032 3.97458,-6.90032"
       id="path10"
       inkscape:connector-curvature="0"
       style="fill:#2a2d2f" />
    <path
       d="m 214.5525,221.03422 c -4.65928,-9.70667 -11.6148,-24.50605 -16.56632,-34.94733 l -49.12284,-0.099 31.47102,35.04637 h 34.21814"
       id="path12"
       inkscape:connector-curvature="0"
       style="fill:#f7fbf5" />
    <path
       d="m 214.09325,168.93513 v 5.51366 l -24.16478,-0.066 c -4.175,0 -4.27518,-5.44763 0,-5.44763 2.18768,0 24.16478,0 24.16478,0"
       id="path14"
       inkscape:connector-curvature="0"
       style="fill:#2a2d2f" />
    <path
       d="m 190.71336,224.55042 c 0,-15.64129 12.85059,-28.31114 28.63202,-28.31114 15.82318,0 28.64038,12.66985 28.64038,28.31114 0,15.64128 -12.8172,28.31113 -28.64038,28.31113 -15.78143,0 -28.63202,-12.66985 -28.63202,-28.31113 z m 28.59862,21.34478 c 11.94044,0 21.6264,-9.57462 21.6264,-21.3778 0,-11.80318 -9.68596,-21.37779 -21.6264,-21.37779 -11.9321,0 -21.61805,9.57461 -21.61805,21.37779 0,11.80318 9.68595,21.3778 21.61805,21.3778"
       id="path16"
       inkscape:connector-curvature="0"
       style="fill:#2a2d2f" />
    <path
       d="m 182.1964,226.44883 25.21688,-52.99877 -6.29586,-2.93842 -25.31709,53.32893 6.39607,2.60826"
       id="path18"
       inkscape:connector-curvature="0"
       style="fill:#2a2d2f" />
  </g>
</svg>
