<?xml version="1.0" encoding="UTF-8" standalone="no"?>
<svg
   xmlns:dc="http://purl.org/dc/elements/1.1/"
   xmlns:cc="http://creativecommons.org/ns#"
   xmlns:rdf="http://www.w3.org/1999/02/22-rdf-syntax-ns#"
   xmlns:svg="http://www.w3.org/2000/svg"
   xmlns="http://www.w3.org/2000/svg"
   xmlns:sodipodi="http://sodipodi.sourceforge.net/DTD/sodipodi-0.dtd"
   xmlns:inkscape="http://www.inkscape.org/namespaces/inkscape"
   id="Nederlands_verkeersbord_J36"
   width="216"
   height="185"
   viewBox="0 0 216 185"
   version="1.1"
   sodipodi:docname="Nederlands_verkeersbord_J36.svg"
   inkscape:version="0.92.3 (2405546, 2018-03-11)">
  <metadata
     id="metadata10">
    <rdf:RDF>
      <cc:Work
         rdf:about="">
        <dc:format>image/svg+xml</dc:format>
        <dc:type
           rdf:resource="http://purl.org/dc/dcmitype/StillImage" />
        <dc:title></dc:title>
      </cc:Work>
    </rdf:RDF>
  </metadata>
  <defs
     id="defs8" />
  <sodipodi:namedview
     pagecolor="#ffffff"
     bordercolor="#666666"
     borderopacity="1"
     objecttolerance="10"
     gridtolerance="10"
     guidetolerance="10"
     inkscape:pageopacity="0"
     inkscape:pageshadow="2"
     inkscape:window-width="640"
     inkscape:window-height="461"
     id="namedview6"
     showgrid="false"
     inkscape:zoom="0.78666667"
     inkscape:cx="175"
     inkscape:cy="148.46937"
     inkscape:window-x="0"
     inkscape:window-y="19"
     inkscape:window-maximized="0"
     inkscape:current-layer="Nederlands_verkeersbord_J36" />
  <path
     id="rode_driehoek"
     d="m -55.101695,225.67797 c 0,0 16.820331,0 0,0 -14.916539,0 -7.219509,-16.14695 -7.219509,-16.14695 L 98.805095,-66.247538 c 0,0 -3.50615,6.116271 0,0 6.253325,-10.927736 14.404105,-10.446589 20.211945,-0.472991 l 161.0933,276.251549 c 0,0 7.70529,16.14695 -7.21203,16.14695 -16.82781,0 0,0 0,0 H -55.101695"
     inkscape:connector-curvature="0"
     style="fill:#c1121c" />
  <path
     id="witte_driehoek"
     d="M 109.38131,-0.62402932 217.10683,185.2535 H 0.19556608 L 109.38131,-0.62402932"
     inkscape:connector-curvature="0"
     style="fill:#f7fbf5" />
  <path
     id="zwart_symbool"
     d="m 77.804555,66.115471 -3.5625,6.71875 6.125,10.46875 -10.6875,-0.75 -4.46875,6.15625 3.65625,6.875 19.3125,1.15625 9.5625,16.374999 -0.1875,0.125 0.15625,0.25 h -19.5625 l -10.5625,-15.781249 -7.84375,0.3125 -3.15625,6.937499 5.875,8.53125 h -12.125 l -4.0625,6.625 4.0625,6.4375 h 12.28125 l -6.03125,8.78125 3.15625,6.875 7.84375,0.34375 10.6875,-16 h 19.15625 v 0.21875 h 0.28125 l -9.78125,16.75 -19.0625,1.125 -3.65625,6.90625 4.46875,6.15625 10.375,-0.75 -6.03125,10.34375 3.78125,6.84375 7.6875,-0.28125 6.125,-10.46875 4.65625,9.5 7.656255,0.75 4.21875,-6.5625 -8.687505,-17.15625 9.562505,-16.40625 0.21875,0.125 0.125,-0.1875 9.78125,16.75 -8.53125,16.875 4.21875,6.5625 7.625,-0.75 4.53125,-9.25 6.03125,10.3125 7.875,0.1875 3.59375,-6.6875 -6.15625,-10.53125 10.75,0.78125 4.46875,-6.15625 -3.65625,-6.90625 -19.40625,-1.15625 -9.5625,-16.3125 0.25,-0.15625 -0.15625,-0.25 h 19.5625 l 10.53125,15.78125 7.90625,-0.34375 3.125,-6.875 -5.84375,-8.5625 h 12.0625 l 4.09375,-6.65625 -4.09375,-6.40625 h -12.21875 l 6,-8.75 -3.125,-6.937499 -7.90625,-0.3125 -10.6875,15.999999 h -19.125 v -0.21875 h -0.28125 l 9.8125,-16.781249 19.0625,-1.125 3.65625,-6.875 -4.46875,-6.15625 -10.40625,0.71875 6.03125,-10.3125 -3.8125,-6.84375 -7.625,0.28125 -6.125,10.5 -4.6875,-9.5625 -7.625,-0.71875 -4.21875,6.5625 8.6875,17.15625 -9.5625,16.374999 -0.25,-0.125 -0.125,0.21875 -9.781255,-16.718749 8.562505,-16.90625 -4.21875,-6.5625 -7.656255,0.71875 -4.5625,9.28125 -6.03125,-10.34375 -7.875,-0.15625"
     inkscape:connector-curvature="0"
     style="fill:#2a2d2f" />
</svg>
