<?xml version="1.0" encoding="UTF-8" standalone="no"?>
<svg
   xmlns:dc="http://purl.org/dc/elements/1.1/"
   xmlns:cc="http://creativecommons.org/ns#"
   xmlns:rdf="http://www.w3.org/1999/02/22-rdf-syntax-ns#"
   xmlns:svg="http://www.w3.org/2000/svg"
   xmlns="http://www.w3.org/2000/svg"
   xmlns:sodipodi="http://sodipodi.sourceforge.net/DTD/sodipodi-0.dtd"
   xmlns:inkscape="http://www.inkscape.org/namespaces/inkscape"
   id="Nederlands_verkeersbord_J25"
   width="216"
   height="185"
   viewBox="0 0 216 185"
   version="1.1"
   sodipodi:docname="Nederlands_verkeersbord_J25.svg"
   inkscape:version="0.92.3 (2405546, 2018-03-11)">
  <metadata
     id="metadata34">
    <rdf:RDF>
      <cc:Work
         rdf:about="">
        <dc:format>image/svg+xml</dc:format>
        <dc:type
           rdf:resource="http://purl.org/dc/dcmitype/StillImage" />
        <dc:title></dc:title>
      </cc:Work>
    </rdf:RDF>
  </metadata>
  <defs
     id="defs32" />
  <sodipodi:namedview
     pagecolor="#ffffff"
     bordercolor="#666666"
     borderopacity="1"
     objecttolerance="10"
     gridtolerance="10"
     guidetolerance="10"
     inkscape:pageopacity="0"
     inkscape:pageshadow="2"
     inkscape:window-width="963"
     inkscape:window-height="480"
     id="namedview30"
     showgrid="false"
     inkscape:zoom="0.78666667"
     inkscape:cx="175"
     inkscape:cy="131.75546"
     inkscape:window-x="0"
     inkscape:window-y="0"
     inkscape:window-maximized="0"
     inkscape:current-layer="Nederlands_verkeersbord_J25" />
  <path
     id="witte_driehoek"
     d="m 108.8983,-29.322034 135,234.999994 H -26.101695 L 108.8983,-29.322034"
     inkscape:connector-curvature="0"
     style="fill:#f7fbf5" />
  <g
     id="zwart_symbool"
     transform="translate(-66.101694,-74.322035)">
    <path
       d="m 98.771272,226.68397 35.935608,-0.12245 0.0644,16.54734 c 0,3.21639 2.3552,3.09394 2.3552,3.09394 l 10.83866,-0.0326 c 0,0 2.35435,0.098 2.35435,-3.1266 l -0.0644,-16.51468 1.06444,-0.0327 7.29019,-8.26142 -0.0966,-26.36797 -7.32239,-5.39605 -10.67762,-26.46594 c -23.64438,-3.02864 -42.096108,-3.22456 -42.096108,-3.09395 0,-0.13061 7.902938,1.81229 -15.74227,5.0042 l -10.51575,26.50676 -7.2902,5.45319 0.09662,26.36797 -19.00006,6.57159 h 1.06446 l 0.03221,16.54733 c 0.0322,3.22457 2.3874,3.09395 2.3874,3.09395 l 10.83865,-0.0327 c 0,0 2.35436,0.13062 2.32216,-3.1266 l -0.0322,-16.51468 36.19326,-0.098"
       id="path3"
       inkscape:connector-curvature="0"
       style="fill:#2a2d2f" />
    <path
       d="m 98.513612,184.81359 c 0,-0.12244 30.967588,0.6694 46.128508,1.7878 l 0.12965,-0.0327 -8.16142,-20.22088 c -23.6452,-3.02865 -38.161148,-3.24907 -38.161148,-3.12662 0,-0.12245 5.774018,-2.6123 -17.87119,0.54695 l -7.99955,20.27804 -0.25847,1.43677 c 15.16173,-1.20819 26.19362,-0.79184 26.19362,-0.6694"
       id="path5"
       inkscape:connector-curvature="0"
       style="fill:#f7fbf5" />
    <path
       d="m 130.15836,209.53254 20.12893,-0.0653 c 2.12892,0 2.25857,-2.20414 2.25857,-2.20414 l -0.0322,-10.26963 c 0,0 -0.12965,-2.19596 -2.29076,-2.19596 l -16.64488,0.0653 c -2.16113,0 -2.93573,1.49391 -3.19337,2.13066 -0.45173,1.02043 -2.61285,10.33494 -2.61285,10.33494 0.0322,2.07352 2.38657,2.20413 2.38657,2.20413"
       id="path7"
       inkscape:connector-curvature="0"
       style="fill:#f7fbf5" />
    <path
       style="fill:none;stroke:#2a2d2f;stroke-width:1.49433029"
       d="m 162.06158,246.03954 h 86.16092 m -86.32194,-3.60009 81.48357,-27.55168 m -83.06416,23.75567 66.03198,-51.97674 m -68.87109,48.85014 50.06427,-70.63843"
       id="path9"
       inkscape:connector-curvature="0" />
    <path
       style="fill:#2a2d2f;stroke:#f7fbf5;stroke-width:0.7964288"
       d="m 187.25517,163.3845 c 2.77386,2.22862 -0.22627,9.65738 -0.22627,9.65738 l 3.48406,-0.25306 c 0,0 1.77464,-0.25308 2.25856,-0.98778 0.51614,-0.73472 0,-0.25308 0.51614,-1.24085 0.48391,-0.98778 1.48314,-4.46542 1.48314,-4.46542 0,0 1.25852,-2.71027 -1.74163,-2.96334 -3.00014,-0.26122 -5.774,0.25307 -5.774,0.25307"
       id="path11"
       inkscape:connector-curvature="0" />
    <path
       style="fill:#2a2d2f;stroke:#f7fbf5;stroke-width:0.7964288"
       d="m 221.57716,167.84991 c 0,0 -1.2577,-2.9715 -3.48324,-1.75514 -2.25856,1.24085 -3.51625,1.02044 -3.51625,2.74292 0,3.47764 -0.51614,4.46541 1.74161,3.95113 2.25857,-0.47349 1.25852,0 2.77469,-0.98778 1.48315,-0.98779 0.48392,-1.50209 1.00006,-2.48986 0.48309,-0.98778 1.48313,-1.46127 1.48313,-1.46127"
       id="path13"
       inkscape:connector-curvature="0" />
    <path
       style="fill:#2a2d2f;stroke:#f7fbf5;stroke-width:0.7964288"
       d="m 215.06159,185.41769 c -2.22638,0.51429 -2.74249,-0.47349 -4.00019,0.99593 -1.2577,1.49392 -1.74163,2.4817 0.25847,2.96334 1.99927,0.50614 2.25774,0.25307 2.25774,0.25307 l 2.25775,-1.24084 1.48397,-1.21636 -2.25774,-1.75514"
       id="path15"
       inkscape:connector-curvature="0" />
    <path
       style="fill:#2a2d2f;stroke:#f7fbf5;stroke-width:0.7964288"
       d="m 195.02926,194.09544 c 0,0 -0.74157,1.72249 -2.484,2.71027 -1.77383,0.98778 -3.03236,0.50614 -3.77393,2.74293 -0.74239,2.22862 -2.74166,2.71026 -1.00003,4.21234 1.7416,1.46125 3.25778,0.22042 3.25778,0.22042 0,0 3.25861,-0.73472 3.00015,-2.45721 -0.25766,-1.72249 0.25846,-1.72249 1.00003,-2.48985 0.74157,-0.72656 0.51613,-2.22863 0.51613,-2.22863 l -0.51613,-2.71027"
       id="path17"
       inkscape:connector-curvature="0" />
    <path
       style="fill:#2a2d2f;stroke:#f7fbf5;stroke-width:0.7964288"
       d="m 211.57752,203.76098 c 0,0 -1.77382,0.98777 -2.0323,2.96334 -0.22545,1.97555 1.77465,0.7347 1.77465,0.7347 0,0 1.74162,0 3.2578,0 1.48395,0 4.5163,0.50614 5.25788,0.25307 0.74157,-0.25307 -1.51618,-2.48986 -1.51618,-2.48986 0,0 -0.22545,-0.2204 -2.00009,-1.46125 -1.74161,-1.24902 -2.0001,0 -2.0001,0 h -2.74166"
       id="path19"
       inkscape:connector-curvature="0" />
    <path
       style="fill:#2a2d2f;stroke:#f7fbf5;stroke-width:0.7964288"
       d="m 232.86754,205.4753 c -1.77383,0.99594 -1.51618,1.98372 -1.51618,1.98372 v 2.22863 l 1.51618,1.24085 1.74243,2.23678 3.77393,-0.73471 1.74161,-2.22863 c 0,0 1.00005,-1.24901 -0.25764,-1.75514 -1.25853,-0.48164 -1.48397,-0.25306 -2.51623,-1.72248 -0.8068,-1.24902 -2.0001,-1.97557 -2.0001,-1.97557 l -2.484,0.72655"
       id="path21"
       inkscape:connector-curvature="0" />
    <path
       style="fill:#2a2d2f;stroke:#f7fbf5;stroke-width:0.7964288"
       d="m 216.31928,234.21069 -5.99945,1.97555 c 0,0 -2.00009,1.97555 -1.25852,3.7307 0.74239,1.72249 2.74166,1.21635 2.74166,1.21635 l 3.77473,-2.23678 2.51622,1.02043 1.74163,-0.76736 1.48397,-1.24085 -0.22628,-2.22863 -4.77396,-1.46941"
       id="path23"
       inkscape:connector-curvature="0" />
    <path
       style="fill:#2a2d2f;stroke:#f7fbf5;stroke-width:0.7964288"
       d="m 249.64205,233.09229 c -1.51616,0.38368 -5.25788,2.58781 -5.25788,2.58781 v 2.996 l 2.74166,2.22862 c 0,0 2.0001,-2.00821 3.51628,-2.22862 1.51617,-0.25307 4.25784,0 4.25784,0 l 2.51621,0.22041 0.22545,-2.71027 -2.74166,-2.6123 -5.2579,-0.48165"
       id="path25"
       inkscape:connector-curvature="0" />
  </g>
  <path
     id="rode_driehoek"
     d="m -55.101694,225.67796 c 0,0 16.836498,0 0,0 -14.904867,0 -7.228208,-16.13915 -7.228208,-16.13915 L 98.798994,-66.239185 c 0,0 -3.516269,6.12259 0,0 6.225716,-10.93905 14.419336,-10.4574 20.193356,-0.47349 L 280.12124,209.53881 c 0,0 7.67996,16.13915 -7.22576,16.13915 -16.83811,0 0,0 0,0 z M 0.18663786,185.26883 H 217.08857 L 109.37918,-0.61313804 0.18663786,185.26883"
     inkscape:connector-curvature="0"
     style="fill:#c1121c" />
</svg>
