<?xml version="1.0" encoding="UTF-8" standalone="no"?>
<svg
   xmlns:dc="http://purl.org/dc/elements/1.1/"
   xmlns:cc="http://creativecommons.org/ns#"
   xmlns:rdf="http://www.w3.org/1999/02/22-rdf-syntax-ns#"
   xmlns:svg="http://www.w3.org/2000/svg"
   xmlns="http://www.w3.org/2000/svg"
   xmlns:sodipodi="http://sodipodi.sourceforge.net/DTD/sodipodi-0.dtd"
   xmlns:inkscape="http://www.inkscape.org/namespaces/inkscape"
   id="Nederlands_verkeersbord_J34"
   width="216"
   height="185"
   viewBox="0 0 216 185"
   version="1.1"
   sodipodi:docname="Nederlands_verkeersbord_J34.svg"
   inkscape:version="0.92.3 (2405546, 2018-03-11)">
  <metadata
     id="metadata20">
    <rdf:RDF>
      <cc:Work
         rdf:about="">
        <dc:format>image/svg+xml</dc:format>
        <dc:type
           rdf:resource="http://purl.org/dc/dcmitype/StillImage" />
        <dc:title></dc:title>
      </cc:Work>
    </rdf:RDF>
  </metadata>
  <defs
     id="defs18" />
  <sodipodi:namedview
     pagecolor="#ffffff"
     bordercolor="#666666"
     borderopacity="1"
     objecttolerance="10"
     gridtolerance="10"
     guidetolerance="10"
     inkscape:pageopacity="0"
     inkscape:pageshadow="2"
     inkscape:window-width="640"
     inkscape:window-height="480"
     id="namedview16"
     showgrid="false"
     inkscape:zoom="0.78666667"
     inkscape:cx="23.618644"
     inkscape:cy="130.49634"
     inkscape:window-x="0"
     inkscape:window-y="0"
     inkscape:window-maximized="0"
     inkscape:current-layer="Nederlands_verkeersbord_J34" />
  <path
     id="rode_driehoek"
     d="m -55.101695,226.94915 c 0,0 16.820331,0 0,0 -14.916539,0 -7.219509,-16.14695 -7.219509,-16.14695 L 98.805095,-64.976347 c 0,0 -3.50615,6.11627 0,0 6.253325,-10.92774 14.404105,-10.44659 20.211945,-0.47299 L 280.11034,210.8022 c 0,0 7.70529,16.14695 -7.21203,16.14695 -16.82781,0 0,0 0,0 H -55.101695"
     inkscape:connector-curvature="0"
     style="fill:#c1121c" />
  <path
     id="witte_driehoek"
     d="M 109.38131,0.64715254 217.10683,186.52468 H 0.19556608 L 109.38131,0.64715254"
     inkscape:connector-curvature="0"
     style="fill:#f7fbf5" />
  <g
     id="zwart_symbool"
     transform="translate(-66.101695,-73.050847)">
    <path
       d="M 104.31325,247.00392 H 248.5828 v -5.70048 H 104.31325 v 5.70048"
       id="path4"
       inkscape:connector-curvature="0"
       style="fill:#2a2d2f" />
    <path
       d="m 192.66392,197.54979 10.10806,-26.88557 12.64561,4.65039 c 2.47011,0.91674 3.03495,-0.87508 3.03495,-0.87508 l 3.06023,-8.14234 c 0,0 0.75874,-1.69181 -1.71137,-2.60022 l -12.64561,-4.65872 0.29506,-0.7834 -4.28264,-7.80898 -20.1824,-7.42562 -6.19635,3.94199 -23.24263,0.48338 c -9.06269,16.8014 -14.42443,30.54421 -14.3317,30.56921 -0.0927,-0.025 -5.10039,13.80949 -9.38303,32.39437 l 17.29076,15.36795 2.1076,7.00058 20.14868,7.41729 8.40511,-3.1586 0.29507,-0.77506 12.67933,4.65038 c 2.4701,0.91675 3.02651,-0.87507 3.02651,-0.87507 l 3.02652,-8.10901 c 0,0 0.79246,-1.72514 -1.71137,-2.63355 l -12.64561,-4.65872 10.10805,-26.88558 0.10117,-0.20002"
       id="path6"
       inkscape:connector-curvature="0"
       style="fill:#2a2d2f" />
    <path
       d="m 160.56093,185.86549 c -0.10117,-0.0333 9.3156,-22.95192 14.48344,-33.95283 v -0.10001 l -17.77974,0.35836 c -9.02053,16.8014 -13.30318,27.56897 -13.20201,27.6023 -0.10117,-0.0333 -3.98758,10.90924 -8.27023,29.46913 l 13.21046,11.75098 0.059,-0.0667 c 3.39746,-11.6593 11.39791,-35.09459 11.49908,-35.06125"
       id="path8"
       inkscape:connector-curvature="0"
       style="fill:#f7fbf5" />
    <path
       d="m 188.44872,169.23077 5.66523,-15.04292 c 0.59013,-1.62514 -1.0538,-2.34187 -1.0538,-2.34187 l -7.84028,-2.90024 c 0,0 -1.74509,-0.51671 -2.33522,1.10843 l -4.67888,12.4677 c -0.62385,1.5918 0.30349,2.60856 0.72502,2.99192 0.65757,0.62505 7.1827,4.8504 7.1827,4.8504 1.57649,0.59172 2.33523,-1.13342 2.33523,-1.13342"
       id="path10"
       inkscape:connector-curvature="0"
       style="fill:#f7fbf5" />
    <path
       d="m 170.66899,216.46804 -5.66524,15.03459 c -0.59012,1.63346 -2.3015,1.10842 -2.3015,1.10842 l -7.874,-2.89191 c 0,0 -1.64393,-0.71672 -1.05379,-2.35019 l 4.71259,-12.43437 c 0.59012,-1.62514 1.97271,-1.79182 2.52913,-1.82515 0.92733,-0.0333 8.63273,0.98341 8.63273,0.98341 1.57648,0.58338 1.02008,2.3752 1.02008,2.3752"
       id="path12"
       inkscape:connector-curvature="0"
       style="fill:#f7fbf5" />
  </g>
</svg>
