<?xml version="1.0" encoding="UTF-8" standalone="no"?>
<svg
   xmlns:dc="http://purl.org/dc/elements/1.1/"
   xmlns:cc="http://creativecommons.org/ns#"
   xmlns:rdf="http://www.w3.org/1999/02/22-rdf-syntax-ns#"
   xmlns:svg="http://www.w3.org/2000/svg"
   xmlns="http://www.w3.org/2000/svg"
   xmlns:sodipodi="http://sodipodi.sourceforge.net/DTD/sodipodi-0.dtd"
   xmlns:inkscape="http://www.inkscape.org/namespaces/inkscape"
   id="Nederlands_verkeersbord_J14"
   width="216"
   height="185"
   viewBox="0 0 216 185"
   version="1.1"
   sodipodi:docname="Nederlands_verkeersbord_J14_Tram(kruising).svg"
   inkscape:version="0.92.3 (2405546, 2018-03-11)">
  <metadata
     id="metadata34">
    <rdf:RDF>
      <cc:Work
         rdf:about="">
        <dc:format>image/svg+xml</dc:format>
        <dc:type
           rdf:resource="http://purl.org/dc/dcmitype/StillImage" />
        <dc:title></dc:title>
      </cc:Work>
    </rdf:RDF>
  </metadata>
  <defs
     id="defs32" />
  <sodipodi:namedview
     pagecolor="#ffffff"
     bordercolor="#666666"
     borderopacity="1"
     objecttolerance="10"
     gridtolerance="10"
     guidetolerance="10"
     inkscape:pageopacity="0"
     inkscape:pageshadow="2"
     inkscape:window-width="640"
     inkscape:window-height="480"
     id="namedview30"
     showgrid="false"
     inkscape:zoom="0.78666667"
     inkscape:cx="175"
     inkscape:cy="150"
     inkscape:window-x="0"
     inkscape:window-y="0"
     inkscape:window-maximized="0"
     inkscape:current-layer="Nederlands_verkeersbord_J14" />
  <path
     id="rode_driehoek"
     d="m -55.101695,225.67797 c 0,0 16.820331,0 0,0 -14.916539,0 -7.219509,-16.14695 -7.219509,-16.14695 L 98.805095,-66.247534 c 0,0 -3.50615,6.11627 0,0 6.253325,-10.92774 14.404105,-10.44659 20.211945,-0.47299 l 161.0933,276.251544 c 0,0 7.70529,16.14695 -7.21203,16.14695 -16.82781,0 0,0 0,0 H -55.101695"
     inkscape:connector-curvature="0"
     style="fill:#c1121c" />
  <path
     id="witte_driehoek"
     d="M 109.38131,-0.6240339 217.10683,185.2535 H 0.19556608 L 109.38131,-0.6240339"
     inkscape:connector-curvature="0"
     style="fill:#f7fbf5" />
  <g
     id="zwart_symbool"
     transform="translate(-66.101695,-74.322034)">
    <path
       d="m 172.85352,193.49816 -25.99183,17.59252 -25.95852,-17.59252 25.95852,-17.59252 25.99183,17.59252"
       id="path4"
       inkscape:connector-curvature="0"
       style="fill:#2a2d2f" />
    <path
       d="m 166.83235,193.53109 -19.97066,13.50105 -19.97899,-13.50105 v -0.0329 l 19.97899,-13.5422 19.97066,13.5422 v 0.0329"
       id="path6"
       inkscape:connector-curvature="0"
       style="fill:#f7fbf5" />
    <path
       d="m 129.91412,249.64275 c -0.84946,2.57673 -3.28958,4.40431 -6.18774,4.40431 -3.57273,0 -6.47089,-2.85663 -6.47089,-6.39654 v -1.6053 h 34.28657 l 0.0333,1.6053 c 0,3.53991 -2.88983,6.39654 -6.47089,6.39654 -2.89815,0 -5.30496,-1.82758 -6.14609,-4.40431 h -9.04426"
       id="path8"
       inkscape:connector-curvature="0"
       style="fill:#2a2d2f" />
    <path
       d="m 216.96719,249.64275 c 0.84113,2.57673 3.28124,4.40431 6.1794,4.40431 3.58107,0 6.4709,-2.85663 6.4709,-6.39654 v -1.6053 h -34.28657 l -0.0333,1.6053 c 0,3.53991 2.89816,6.39654 6.47922,6.39654 2.85652,0 5.29664,-1.82758 6.1794,-4.40431 h 9.01096"
       id="path10"
       inkscape:connector-curvature="0"
       style="fill:#2a2d2f" />
    <path
       d="m 190.51731,247.71638 1.07432,-4.75829 h 41.83178 l 1.10762,4.75829 h 12.36715 v -19.74939 l -4.0724,-15.43565 0.71621,-4.52779 H 103.331 l 0.71621,4.52779 -4.064094,15.43565 v 19.74939 h 12.358824 l 1.10763,-4.75829 h 41.84011 l 1.06599,4.75829 h 34.16164"
       id="path12"
       inkscape:connector-curvature="0"
       style="fill:#2a2d2f" />
    <path
       d="m 229.22607,212.53134 h 11.06797 l 4.0974,15.43565 h -15.16537 v -15.43565"
       id="path14"
       inkscape:connector-curvature="0"
       style="fill:#f7fbf5" />
    <path
       d="m 207.59813,227.96699 h 18.73811 v -15.46858 h -18.73811 v 15.46858"
       id="path16"
       inkscape:connector-curvature="0"
       style="fill:#f7fbf5" />
    <path
       d="m 185.92855,227.96699 h 18.77143 v -15.46858 h -18.77143 v 15.46858"
       id="path18"
       inkscape:connector-curvature="0"
       style="fill:#f7fbf5" />
    <path
       d="m 163.80927,227.96699 h 19.25444 v -15.46858 h -19.25444 v 15.46858"
       id="path20"
       inkscape:connector-curvature="0"
       style="fill:#f7fbf5" />
    <path
       d="m 117.64691,212.53134 h -11.05966 l -4.09739,15.43565 h 15.15705 v -15.43565"
       id="path22"
       inkscape:connector-curvature="0"
       style="fill:#f7fbf5" />
    <path
       d="m 120.54506,227.96699 h 18.73811 v -15.46858 h -18.73811 v 15.46858"
       id="path24"
       inkscape:connector-curvature="0"
       style="fill:#f7fbf5" />
    <path
       d="m 142.173,227.96699 h 18.77141 V 212.49841 H 142.173 v 15.46858"
       id="path26"
       inkscape:connector-curvature="0"
       style="fill:#f7fbf5" />
  </g>
</svg>
