<?xml version="1.0" encoding="UTF-8" standalone="no"?>
<svg
   xmlns:dc="http://purl.org/dc/elements/1.1/"
   xmlns:cc="http://creativecommons.org/ns#"
   xmlns:rdf="http://www.w3.org/1999/02/22-rdf-syntax-ns#"
   xmlns:svg="http://www.w3.org/2000/svg"
   xmlns="http://www.w3.org/2000/svg"
   xmlns:sodipodi="http://sodipodi.sourceforge.net/DTD/sodipodi-0.dtd"
   xmlns:inkscape="http://www.inkscape.org/namespaces/inkscape"
   id="Nederlands_verkeersbord_J32"
   width="216"
   height="185"
   viewBox="0 0 216 185"
   version="1.1"
   sodipodi:docname="Nederlands_verkeersbord_J32.svg"
   inkscape:version="0.92.3 (2405546, 2018-03-11)">
  <metadata
     id="metadata13">
    <rdf:RDF>
      <cc:Work
         rdf:about="">
        <dc:format>image/svg+xml</dc:format>
        <dc:type
           rdf:resource="http://purl.org/dc/dcmitype/StillImage" />
        <dc:title></dc:title>
      </cc:Work>
    </rdf:RDF>
  </metadata>
  <defs
     id="defs11" />
  <sodipodi:namedview
     pagecolor="#ffffff"
     bordercolor="#666666"
     borderopacity="1"
     objecttolerance="10"
     gridtolerance="10"
     guidetolerance="10"
     inkscape:pageopacity="0"
     inkscape:pageshadow="2"
     inkscape:window-width="640"
     inkscape:window-height="480"
     id="namedview9"
     showgrid="false"
     inkscape:zoom="0.78666667"
     inkscape:cx="175"
     inkscape:cy="150"
     inkscape:window-x="0"
     inkscape:window-y="0"
     inkscape:window-maximized="0"
     inkscape:current-layer="Nederlands_verkeersbord_J32" />
  <path
     id="rode_driehoek"
     d="m -55.101695,225.67797 c 0,0 16.820331,0 0,0 -14.916539,0 -7.219509,-16.14695 -7.219509,-16.14695 L 98.805095,-66.247534 c 0,0 -3.50615,6.11627 0,0 6.253325,-10.92774 14.404105,-10.44659 20.211945,-0.47299 l 161.0933,276.251544 c 0,0 7.70529,16.14695 -7.21203,16.14695 -16.82781,0 0,0 0,0 H -55.101695"
     inkscape:connector-curvature="0"
     style="fill:#c1121c" />
  <path
     id="witte_driehoek"
     d="M 109.38131,-0.6240339 217.10683,185.2535 H 0.19556608 L 109.38131,-0.6240339"
     inkscape:connector-curvature="0"
     style="fill:#f7fbf5" />
  <path
     id="zwart_stoplicht"
     d="m 109.60817,174.4495 c 13.5334,0 24.52668,-10.83347 24.52668,-24.24359 V 66.658136 c 0,-13.41012 -10.99328,-24.27651 -24.52668,-24.27651 -13.566715,0 -24.568325,10.86639 -24.568325,24.27651 v 83.547774 c 0,13.41012 11.00161,24.24359 24.568325,24.24359"
     inkscape:connector-curvature="0"
     style="fill:#2a2d2f" />
  <path
     id="geel_licht"
     d="m 109.66648,126.15166 c 9.76069,0 17.63921,-7.81228 17.63921,-17.42739 0,-9.615124 -7.87852,-17.435634 -17.63921,-17.435634 -9.727415,0 -17.630915,7.82051 -17.630915,17.435634 0,9.61511 7.9035,17.42739 17.630915,17.42739"
     inkscape:connector-curvature="0"
     style="fill:#f0ca00" />
  <path
     id="rood_licht"
     d="m 109.66648,85.056926 c 9.76069,0 17.63921,-7.78759 17.63921,-17.43563 0,-9.61511 -7.87852,-17.42739 -17.63921,-17.42739 -9.727415,0 -17.630915,7.81228 -17.630915,17.42739 0,9.64804 7.9035,17.43563 17.630915,17.43563"
     inkscape:connector-curvature="0"
     style="fill:#c1121c" />
  <path
     id="groen_licht"
     d="m 109.66648,166.3491 c 9.76069,0 17.63921,-7.78759 17.63921,-17.43563 0,-9.61512 -7.87852,-17.4274 -17.63921,-17.4274 -9.727415,0 -17.630915,7.81228 -17.630915,17.4274 0,9.64804 7.9035,17.43563 17.630915,17.43563"
     inkscape:connector-curvature="0"
     style="fill:#008754" />
</svg>
