<?xml version="1.0" encoding="UTF-8" standalone="no"?>
<svg
   xmlns:dc="http://purl.org/dc/elements/1.1/"
   xmlns:cc="http://creativecommons.org/ns#"
   xmlns:rdf="http://www.w3.org/1999/02/22-rdf-syntax-ns#"
   xmlns:svg="http://www.w3.org/2000/svg"
   xmlns="http://www.w3.org/2000/svg"
   xmlns:sodipodi="http://sodipodi.sourceforge.net/DTD/sodipodi-0.dtd"
   xmlns:inkscape="http://www.inkscape.org/namespaces/inkscape"
   id="Nederlands_verkeersbord_J19"
   width="216"
   height="185"
   viewBox="0 0 216 185"
   version="1.1"
   sodipodi:docname="Nederlands_verkeersbord_J19.svg"
   inkscape:version="0.92.3 (2405546, 2018-03-11)">
  <metadata
     id="metadata10">
    <rdf:RDF>
      <cc:Work
         rdf:about="">
        <dc:format>image/svg+xml</dc:format>
        <dc:type
           rdf:resource="http://purl.org/dc/dcmitype/StillImage" />
        <dc:title></dc:title>
      </cc:Work>
    </rdf:RDF>
  </metadata>
  <defs
     id="defs8" />
  <sodipodi:namedview
     pagecolor="#ffffff"
     bordercolor="#666666"
     borderopacity="1"
     objecttolerance="10"
     gridtolerance="10"
     guidetolerance="10"
     inkscape:pageopacity="0"
     inkscape:pageshadow="2"
     inkscape:window-width="640"
     inkscape:window-height="480"
     id="namedview6"
     showgrid="false"
     inkscape:zoom="0.78666667"
     inkscape:cx="175"
     inkscape:cy="150"
     inkscape:window-x="0"
     inkscape:window-y="0"
     inkscape:window-maximized="0"
     inkscape:current-layer="Nederlands_verkeersbord_J19" />
  <path
     id="rode_driehoek"
     d="m -56.372881,225.67797 c 0,0 16.820331,0 0,0 -14.916539,0 -7.219509,-16.14695 -7.219509,-16.14695 L 97.533909,-66.247534 c 0,0 -3.50615,6.11627 0,0 6.253321,-10.92774 14.404101,-10.44659 20.211941,-0.47299 l 161.0933,276.251544 c 0,0 7.70529,16.14695 -7.21203,16.14695 -16.82781,0 0,0 0,0 H -56.372881"
     inkscape:connector-curvature="0"
     style="fill:#c1121c" />
  <path
     id="witte_driehoek"
     d="M 108.11012,-0.6240339 215.83564,185.2535 H -1.0756204 L 108.11012,-0.6240339"
     inkscape:connector-curvature="0"
     style="fill:#f7fbf5" />
  <path
     id="zwart_symbool"
     d="m 116.52445,180.03017 h 13.23624 V 46.191166 H 116.52445 Z M 71.792519,128.57176 v 51.45841 h -13.22801 l 0.0329,-56.85455 25.97921,-25.712954 -0.0329,-0.0325 v -51.239 h 13.22803 v 56.692024 l -25.97922,25.68857 v 0"
     inkscape:connector-curvature="0"
     style="fill:#2a2d2f" />
</svg>
