<?xml version="1.0" encoding="UTF-8" standalone="no"?>
<svg
   xmlns:dc="http://purl.org/dc/elements/1.1/"
   xmlns:cc="http://creativecommons.org/ns#"
   xmlns:rdf="http://www.w3.org/1999/02/22-rdf-syntax-ns#"
   xmlns:svg="http://www.w3.org/2000/svg"
   xmlns="http://www.w3.org/2000/svg"
   xmlns:sodipodi="http://sodipodi.sourceforge.net/DTD/sodipodi-0.dtd"
   xmlns:inkscape="http://www.inkscape.org/namespaces/inkscape"
   id="Nederlands_verkeersbord_J39"
   width="216"
   height="185"
   version="1.1"
   sodipodi:docname="Nederlands_verkeersbord_J39.svg"
   inkscape:version="0.92.3 (2405546, 2018-03-11)">
  <metadata
     id="metadata10">
    <rdf:RDF>
      <cc:Work
         rdf:about="">
        <dc:format>image/svg+xml</dc:format>
        <dc:type
           rdf:resource="http://purl.org/dc/dcmitype/StillImage" />
        <dc:title></dc:title>
      </cc:Work>
    </rdf:RDF>
  </metadata>
  <defs
     id="defs8" />
  <sodipodi:namedview
     pagecolor="#ffffff"
     bordercolor="#666666"
     borderopacity="1"
     objecttolerance="10"
     gridtolerance="10"
     guidetolerance="10"
     inkscape:pageopacity="0"
     inkscape:pageshadow="2"
     inkscape:window-width="640"
     inkscape:window-height="480"
     id="namedview6"
     showgrid="false"
     inkscape:zoom="0.78666667"
     inkscape:cx="175"
     inkscape:cy="150"
     inkscape:window-x="0"
     inkscape:window-y="0"
     inkscape:window-maximized="0"
     inkscape:current-layer="Nederlands_verkeersbord_J39" />
  <path
     id="driehoek_rood"
     d="m -55.101695,225.67797 c 0,0 16.820331,0 0,0 -14.916539,0 -7.219509,-16.14695 -7.219509,-16.14695 L 98.805095,-66.247534 c 0,0 -3.50615,6.11627 0,0 6.253325,-10.92774 14.404105,-10.44659 20.211945,-0.47299 l 161.0933,276.251544 c 0,0 7.70529,16.14695 -7.21203,16.14695 -16.82781,0 0,0 0,0 H -55.101695"
     inkscape:connector-curvature="0"
     style="fill:#c1121c" />
  <path
     id="driehoek_wit"
     d="M 109.38131,-0.6240339 217.10683,185.2535 H 0.19556608 L 109.38131,-0.6240339"
     inkscape:connector-curvature="0"
     style="fill:#f7fbf5" />
  <path
     id="symbool_poller_zwart"
     d="m 115.42956,107.42797 -23.687505,13.5625 -39.875,0.0625 -2.625,11.625 12.5625,5.28125 c 0,0 5.27557,-12.21032 18.15625,-9.375 11.51628,2.54044 12.70204,14.4989 11.65625,19.28125 -5.83106,1.35475 -6.75,6.84375 -6.75,6.84375 v 0.25 18.9375 h -51.40625 v 2.25 H 195.99206 v -2.25 h -91.21875 v -19.125 -0.0625 c 0,0 -0.40561,-2.44012 -2.40625,-4.46875 l 40.8125,8.8125 c 1.87133,-5.24707 7.39934,-14.46561 18.3125,-12.0625 10.91316,2.40311 12.96125,11.47836 13.03125,16.25 l 9.375,-0.5625 3.8125,-16.9375 -18.5625,-8.375 -14,-21.1875 z m 1,2.59375 20.53125,4.5 -3.59375,15.875 -38.562505,-8.5 z m 24.65625,5.4375 12.6875,2.78125 12.71875,19.46875 -28.96875,-6.375 z m -64.531255,17.03125 c -5.15075,-0.0882 -9.80573,3.40402 -10.96875,8.5625 -1.32916,5.90405 2.41124,11.74856 8.375,13.0625 5.96376,1.31392 11.88959,-2.41711 13.21875,-8.3125 1.32917,-5.8954 -2.41124,-11.74858 -8.375,-13.0625 -0.74656,-0.16424 -1.51418,-0.2374 -2.25,-0.25 z m 82.781255,18 c -5.14656,-0.0882 -9.83698,3.40402 -11,8.5625 -1.32917,5.90405 2.44249,11.74857 8.40625,13.0625 5.96376,1.31393 11.88959,-2.4171 13.21875,-8.3125 1.32917,-5.8954 -2.44249,-11.74858 -8.40625,-13.0625 -0.74547,-0.16424 -1.48353,-0.2374 -2.21875,-0.25 z"
     inkscape:connector-curvature="0"
     style="fill:#2a2d2f" />
</svg>
