<?xml version="1.0" encoding="UTF-8" standalone="no"?>
<svg
   xmlns:dc="http://purl.org/dc/elements/1.1/"
   xmlns:cc="http://creativecommons.org/ns#"
   xmlns:rdf="http://www.w3.org/1999/02/22-rdf-syntax-ns#"
   xmlns:svg="http://www.w3.org/2000/svg"
   xmlns="http://www.w3.org/2000/svg"
   xmlns:sodipodi="http://sodipodi.sourceforge.net/DTD/sodipodi-0.dtd"
   xmlns:inkscape="http://www.inkscape.org/namespaces/inkscape"
   id="Nederlands_verkeersbord_J35"
   width="216"
   height="185"
   viewBox="0 0 216 185"
   version="1.1"
   sodipodi:docname="Nederlands_verkeersbord_J35.svg"
   inkscape:version="0.92.3 (2405546, 2018-03-11)">
  <metadata
     id="metadata66">
    <rdf:RDF>
      <cc:Work
         rdf:about="">
        <dc:format>image/svg+xml</dc:format>
        <dc:type
           rdf:resource="http://purl.org/dc/dcmitype/StillImage" />
        <dc:title></dc:title>
      </cc:Work>
    </rdf:RDF>
  </metadata>
  <defs
     id="defs64" />
  <sodipodi:namedview
     pagecolor="#ffffff"
     bordercolor="#666666"
     borderopacity="1"
     objecttolerance="10"
     gridtolerance="10"
     guidetolerance="10"
     inkscape:pageopacity="0"
     inkscape:pageshadow="2"
     inkscape:window-width="640"
     inkscape:window-height="480"
     id="namedview62"
     showgrid="false"
     inkscape:zoom="0.78666667"
     inkscape:cx="175"
     inkscape:cy="148.22479"
     inkscape:window-x="0"
     inkscape:window-y="0"
     inkscape:window-maximized="0"
     inkscape:current-layer="Nederlands_verkeersbord_J35" />
  <path
     id="rode_driehoek"
     d="m -55.101695,225.67797 c 0,0 16.820331,0 0,0 -14.916539,0 -7.219509,-16.14695 -7.219509,-16.14695 L 98.805095,-66.247534 c 0,0 -3.50615,6.11627 0,0 6.253325,-10.92774 14.404105,-10.44659 20.211945,-0.47299 l 161.0933,276.251544 c 0,0 7.70529,16.14695 -7.21203,16.14695 -16.82781,0 0,0 0,0 H -55.101695"
     inkscape:connector-curvature="0"
     style="fill:#c1121c" />
  <path
     id="witte_driehoek"
     d="M 109.38131,-0.6240339 217.10683,185.2535 H 0.19556608 L 109.38131,-0.6240339"
     inkscape:connector-curvature="0"
     style="fill:#f7fbf5" />
  <g
     id="zwart_symbool"
     transform="translate(-66.101695,-74.322034)">
    <path
       d="m 172.8772,235.11869 28.15764,-0.0667 0.0253,12.92626 c 0.0337,2.54191 1.87998,2.4419 1.87998,2.4419 l 8.49789,-0.0333 c 0,0 1.84625,0.10001 1.81254,-2.4419 l -0.0337,-12.95126 h 0.82619 l 5.72426,-6.48396 -0.0674,-20.63535 -5.75798,-4.26708 -8.363,-20.70201 c -18.54696,-2.37523 -32.97142,-2.54191 -32.97142,-2.4419 0,-0.10001 -14.41605,0.15834 -32.96301,2.63359 l -8.22809,20.76868 -5.69899,4.26709 0.0337,20.64367 5.75799,6.47563 h 0.82619 l 0.0337,12.95959 c 0.0337,2.53358 1.84628,2.40857 1.84628,2.40857 h 8.49787 c 0,0 1.83784,0.0583 1.83784,-2.4419 l -0.0337,-12.9596 28.15765,-0.10001 h 0.20234"
       id="path4"
       inkscape:connector-curvature="0"
       style="fill:#2a2d2f" />
    <path
       d="m 172.67486,202.3405 c 0,-0.10001 24.27122,0.51672 36.15815,1.40014 l 0.0674,-0.0333 -6.35655,-15.85987 c -18.53852,-2.3419 -29.93646,-2.53358 -29.93646,-2.40857 0,-0.12501 -11.3558,0.13335 -29.86903,2.60859 l -6.28911,15.88487 0.10117,0.0333 c 11.85318,-0.94176 36.1244,-1.72517 36.1244,-1.62516"
       id="path6"
       inkscape:connector-curvature="0"
       style="fill:#f7fbf5" />
    <path
       d="m 197.4772,221.70906 15.77335,-0.0667 c 1.67765,0 1.77882,-1.72517 1.77882,-1.72517 l -0.0337,-8.04244 c 0,0 -0.10116,-1.72517 -1.77882,-1.72517 l -13.07561,0.0333 c -1.67765,0 -2.26777,1.17512 -2.50383,1.69184 -0.36252,0.81674 -2.00643,8.10912 -2.00643,8.10912 0,1.59182 1.84625,1.72517 1.84625,1.72517"
       id="path8"
       inkscape:connector-curvature="0"
       style="fill:#f7fbf5" />
    <path
       d="m 148.00741,221.8424 -15.77333,0.025 c -1.67767,0.0333 -1.77884,-1.69183 -1.77884,-1.69183 l -0.0253,-8.04245 c 0,0 0.0927,-1.72516 1.77039,-1.72516 l 13.04188,-0.0583 c 1.71138,0 2.30994,1.16678 2.53757,1.69183 0.36251,0.78341 2.07389,8.07578 2.07389,8.07578 0,1.62516 -1.84628,1.72517 -1.84628,1.72517"
       id="path10"
       inkscape:connector-curvature="0"
       style="fill:#f7fbf5" />
    <path
       d="m 250.52993,227.3096 c -1.32358,0 -2.41111,1.04177 -2.41111,2.34189 0,1.30013 1.08753,2.3419 2.41111,2.3419 1.31514,0 2.36894,-1.04177 2.36894,-2.3419 0,-1.30012 -1.0538,-2.34189 -2.36894,-2.34189"
       id="path12"
       inkscape:connector-curvature="0"
       style="fill:#2a2d2f" />
    <path
       d="m 246.40744,219.8172 c -1.31515,0 -2.36895,1.04177 -2.36895,2.35023 0,1.30013 1.0538,2.3419 2.36895,2.3419 1.32358,0 2.41111,-1.04177 2.41111,-2.3419 0,-1.30846 -1.08753,-2.35023 -2.41111,-2.35023"
       id="path14"
       inkscape:connector-curvature="0"
       style="fill:#2a2d2f" />
    <path
       d="m 242.32711,212.33314 c -1.31514,0 -2.36896,1.04177 -2.36896,2.3419 0,1.30012 1.05382,2.34189 2.36896,2.34189 1.31514,0 2.36895,-1.04177 2.36895,-2.34189 0,-1.30013 -1.05381,-2.3419 -2.36895,-2.3419"
       id="path16"
       inkscape:connector-curvature="0"
       style="fill:#2a2d2f" />
    <path
       d="m 220.23095,188.79752 c -1.31516,0 -2.40267,1.04177 -2.40267,2.34189 0,1.30013 1.08751,2.3419 2.40267,2.3419 1.28143,0 2.36895,-1.04177 2.36895,-2.3419 0,-1.30012 -1.08752,-2.34189 -2.36895,-2.34189"
       id="path18"
       inkscape:connector-curvature="0"
       style="fill:#2a2d2f" />
    <path
       d="m 216.1169,181.30512 c -1.32358,0 -2.37739,1.04177 -2.37739,2.35023 0,1.30013 1.05381,2.3419 2.37739,2.3419 1.31514,0 2.40267,-1.04177 2.40267,-2.3419 0,-1.30846 -1.08753,-2.35023 -2.40267,-2.35023"
       id="path20"
       inkscape:connector-curvature="0"
       style="fill:#2a2d2f" />
    <path
       d="m 212.02813,173.82106 c -1.31514,0 -2.36896,1.04177 -2.36896,2.3419 0,1.30012 1.05382,2.34189 2.36896,2.34189 1.31514,0 2.36896,-1.04177 2.36896,-2.34189 0,-1.30013 -1.05382,-2.3419 -2.36896,-2.3419"
       id="path22"
       inkscape:connector-curvature="0"
       style="fill:#2a2d2f" />
    <path
       d="m 204.8201,133.61715 c -1.31513,0 -2.36894,1.07511 -2.36894,2.37524 0,1.30012 1.05381,2.34189 2.36894,2.34189 1.31516,0 2.36897,-1.04177 2.36897,-2.34189 0,-1.30013 -1.05381,-2.37524 -2.36897,-2.37524"
       id="path24"
       inkscape:connector-curvature="0"
       style="fill:#2a2d2f" />
    <path
       d="m 200.73135,126.12476 c -1.31515,0 -2.36895,1.0751 -2.36895,2.37523 0,1.30846 1.0538,2.35023 2.36895,2.35023 1.32357,0 2.37738,-1.04177 2.37738,-2.35023 0,-1.30013 -1.05381,-2.37523 -2.37738,-2.37523"
       id="path26"
       inkscape:connector-curvature="0"
       style="fill:#2a2d2f" />
    <path
       d="m 196.65102,118.6407 c -1.31515,0 -2.36895,1.0751 -2.36895,2.37523 0,1.30013 1.0538,2.34189 2.36895,2.34189 1.31515,0 2.36895,-1.04176 2.36895,-2.34189 0,-1.30013 -1.0538,-2.37523 -2.36895,-2.37523"
       id="path28"
       inkscape:connector-curvature="0"
       style="fill:#2a2d2f" />
    <path
       d="m 196.65102,166.92039 c -1.31515,0 -2.36895,1.04177 -2.36895,2.3419 0,1.30012 1.0538,2.34189 2.36895,2.34189 1.31515,0 2.36895,-1.04177 2.36895,-2.34189 0,-1.30013 -1.0538,-2.3419 -2.36895,-2.3419"
       id="path30"
       inkscape:connector-curvature="0"
       style="fill:#2a2d2f" />
    <path
       d="m 192.57069,159.428 c -1.32358,0 -2.41111,1.04177 -2.41111,2.35023 0,1.30012 1.08753,2.34189 2.41111,2.34189 1.31515,0 2.36895,-1.04177 2.36895,-2.34189 0,-1.30846 -1.0538,-2.35023 -2.36895,-2.35023"
       id="path32"
       inkscape:connector-curvature="0"
       style="fill:#2a2d2f" />
    <path
       d="m 188.44821,151.94394 c -1.31515,0 -2.36895,1.04176 -2.36895,2.34189 0,1.30013 1.0538,2.3419 2.36895,2.3419 1.32358,0 2.4111,-1.04177 2.4111,-2.3419 0,-1.30013 -1.08752,-2.34189 -2.4111,-2.34189"
       id="path34"
       inkscape:connector-curvature="0"
       style="fill:#2a2d2f" />
    <path
       d="m 170.66842,135.04229 c -1.31515,0 -2.36895,1.07511 -2.36895,2.38357 0,1.30012 1.0538,2.34189 2.36895,2.34189 1.31515,0 2.36895,-1.04177 2.36895,-2.34189 0,-1.30846 -1.0538,-2.38357 -2.36895,-2.38357"
       id="path36"
       inkscape:connector-curvature="0"
       style="fill:#2a2d2f" />
    <path
       d="m 166.58809,127.55823 c -1.32358,0 -2.37738,1.07511 -2.37738,2.37523 0,1.27513 1.0538,2.3419 2.37738,2.3419 1.31515,0 2.36896,-1.06677 2.36896,-2.3419 0,-1.30012 -1.05381,-2.37523 -2.36896,-2.37523"
       id="path38"
       inkscape:connector-curvature="0"
       style="fill:#2a2d2f" />
    <path
       d="m 162.49933,120.07417 c -1.31514,0 -2.40267,1.07511 -2.40267,2.37523 0,1.26679 1.08753,2.3419 2.40267,2.3419 1.31515,0 2.36896,-1.07511 2.36896,-2.3419 0,-1.30012 -1.05381,-2.37523 -2.36896,-2.37523"
       id="path40"
       inkscape:connector-curvature="0"
       style="fill:#2a2d2f" />
    <path
       d="m 156.74134,166.42868 c -1.32357,0 -2.4111,1.04177 -2.4111,2.34189 0,1.30846 1.08753,2.38357 2.4111,2.38357 1.31515,0 2.36896,-1.07511 2.36896,-2.38357 0,-1.30012 -1.05381,-2.34189 -2.36896,-2.34189"
       id="path42"
       inkscape:connector-curvature="0"
       style="fill:#2a2d2f" />
    <path
       d="m 152.61887,158.94462 c -1.31515,0 -2.36896,1.0751 -2.36896,2.37523 0,1.26679 1.05381,2.34189 2.36896,2.34189 1.32357,0 2.41109,-1.0751 2.41109,-2.34189 0,-1.30013 -1.08752,-2.37523 -2.41109,-2.37523"
       id="path44"
       inkscape:connector-curvature="0"
       style="fill:#2a2d2f" />
    <path
       d="m 148.53853,151.45222 c -1.31515,0 -2.36894,1.04177 -2.36894,2.3419 0,1.30846 1.05379,2.38356 2.36894,2.38356 1.31516,0 2.40268,-1.0751 2.40268,-2.38356 0,-1.30013 -1.08752,-2.3419 -2.40268,-2.3419"
       id="path46"
       inkscape:connector-curvature="0"
       style="fill:#2a2d2f" />
    <path
       d="m 125.94498,197.32335 c -1.31516,0 -2.40268,1.0751 -2.40268,2.37523 0,1.30846 1.08752,2.35023 2.40268,2.35023 1.32357,0 2.37736,-1.04177 2.37736,-2.35023 0,-1.30013 -1.05379,-2.37523 -2.37736,-2.37523"
       id="path48"
       inkscape:connector-curvature="0"
       style="fill:#2a2d2f" />
    <path
       d="m 121.86464,189.87262 c -1.31515,0 -2.40267,1.04177 -2.40267,2.3419 0,1.30012 1.08752,2.34189 2.40267,2.34189 1.31515,0 2.36895,-1.04177 2.36895,-2.34189 0,-1.30013 -1.0538,-2.3419 -2.36895,-2.3419"
       id="path50"
       inkscape:connector-curvature="0"
       style="fill:#2a2d2f" />
    <path
       d="m 117.7843,182.34689 c -1.32358,0 -2.4111,1.07511 -2.4111,2.37523 0,1.30846 1.08752,2.35023 2.4111,2.35023 1.31516,0 2.36896,-1.04177 2.36896,-2.35023 0,-1.30012 -1.0538,-2.37523 -2.36896,-2.37523"
       id="path52"
       inkscape:connector-curvature="0"
       style="fill:#2a2d2f" />
    <path
       d="m 108.16518,235.83543 c -1.31515,0 -2.40267,1.0751 -2.40267,2.37523 0,1.30846 1.08752,2.35023 2.40267,2.35023 1.28143,0 2.36895,-1.04177 2.36895,-2.35023 0,-1.30013 -1.08752,-2.37523 -2.36895,-2.37523"
       id="path54"
       inkscape:connector-curvature="0"
       style="fill:#2a2d2f" />
    <path
       d="m 104.05113,228.3847 c -1.32358,0 -2.37737,1.04177 -2.37737,2.3419 0,1.30012 1.05379,2.34189 2.37737,2.34189 1.31515,0 2.40267,-1.04177 2.40267,-2.34189 0,-1.30013 -1.08752,-2.3419 -2.40267,-2.3419"
       id="path56"
       inkscape:connector-curvature="0"
       style="fill:#2a2d2f" />
    <path
       d="m 99.962378,220.85897 c -1.315158,0 -2.368961,1.07511 -2.368961,2.38357 0,1.30012 1.053803,2.34189 2.368961,2.34189 1.323572,0 2.377372,-1.04177 2.377372,-2.34189 0,-1.30846 -1.0538,-2.38357 -2.377372,-2.38357"
       id="path58"
       inkscape:connector-curvature="0"
       style="fill:#2a2d2f" />
  </g>
</svg>
