<?xml version="1.0" encoding="UTF-8" standalone="no"?>
<svg
   xmlns:dc="http://purl.org/dc/elements/1.1/"
   xmlns:cc="http://creativecommons.org/ns#"
   xmlns:rdf="http://www.w3.org/1999/02/22-rdf-syntax-ns#"
   xmlns:svg="http://www.w3.org/2000/svg"
   xmlns="http://www.w3.org/2000/svg"
   xmlns:sodipodi="http://sodipodi.sourceforge.net/DTD/sodipodi-0.dtd"
   xmlns:inkscape="http://www.inkscape.org/namespaces/inkscape"
   id="Nederlands_verkeersbord_J3"
   width="216"
   height="185"
   viewBox="0 0 216 185"
   version="1.1"
   sodipodi:docname="Nederlands_verkeersbord_J4_S-bocht(en),_eerst_naar_rechts.svg"
   inkscape:version="0.92.3 (2405546, 2018-03-11)">
  <metadata
     id="metadata10">
    <rdf:RDF>
      <cc:Work
         rdf:about="">
        <dc:format>image/svg+xml</dc:format>
        <dc:type
           rdf:resource="http://purl.org/dc/dcmitype/StillImage" />
        <dc:title></dc:title>
      </cc:Work>
    </rdf:RDF>
  </metadata>
  <defs
     id="defs8" />
  <sodipodi:namedview
     pagecolor="#ffffff"
     bordercolor="#666666"
     borderopacity="1"
     objecttolerance="10"
     gridtolerance="10"
     guidetolerance="10"
     inkscape:pageopacity="0"
     inkscape:pageshadow="2"
     inkscape:window-width="640"
     inkscape:window-height="480"
     id="namedview6"
     showgrid="false"
     inkscape:zoom="0.78666667"
     inkscape:cx="175"
     inkscape:cy="150"
     inkscape:window-x="0"
     inkscape:window-y="0"
     inkscape:window-maximized="0"
     inkscape:current-layer="Nederlands_verkeersbord_J3" />
  <path
     id="rode_driehoek"
     d="m -55.101695,225.67797 c 0,0 16.820331,0 0,0 -14.916539,0 -7.219509,-16.14695 -7.219509,-16.14695 L 98.805095,-66.247534 c 0,0 -3.50615,6.11627 0,0 6.253325,-10.92774 14.404105,-10.44659 20.211945,-0.47299 l 161.0933,276.251544 c 0,0 7.70529,16.14695 -7.21203,16.14695 -16.82781,0 0,0 0,0 H -55.101695"
     inkscape:connector-curvature="0"
     style="fill:#c1121c" />
  <path
     id="witte_driehoek"
     d="M 109.38131,-0.6240339 217.10683,185.2535 H 0.19556608 L 109.38131,-0.6240339"
     inkscape:connector-curvature="0"
     style="fill:#f7fbf5" />
  <path
     id="zwart_symbool"
     d="m 134.56785,65.537466 14.21262,24.95609 v 31.596554 c 0,0 -1.21822,29.49737 -34.86322,29.49737 0,0 -15.633885,-0.25926 -25.244325,-8.82328 0,0 -12.99438,-10.91411 -12.99438,3.33695 l 0.0338,36.84871 -15.43084,-10.67994 -15.16859,10.90575 v -45.37928 c 0,0 1.22669,-29.49736 34.89706,-29.49736 0,0 15.63388,0.25926 25.252775,8.82328 0,0 12.98594,10.90575 12.98594,-3.33696 V 91.672776 l 16.31913,-26.13531"
     inkscape:connector-curvature="0"
     style="fill:#2a2d2f" />
</svg>
